<svg id="Capa_1" data-name="Capa 1" xmlns="http://www.w3.org/2000/svg" viewBox="0 0 563.21 562.4"><defs><style>.cls-1{fill:#900;}.cls-2{fill:#a47167;stroke:#a47167;}</style></defs><title>maule</title><path class="cls-1" d="M507.73,173.43,506,174.7l-2,5c-.29.74-.63,1.46-.87,2.21a4.62,4.62,0,0,0,1,4.94,54.19,54.19,0,0,1,4.82,6.05,9.89,9.89,0,0,1,1.92,8.15,20.82,20.82,0,0,0-.25,2.13c1.63.83,2.94,2,4.94,1.9a4.5,4.5,0,0,1,2.62,1.28c5.47,4.55,12,6.4,18.83,7.37,1.38.19,2.74.47,4.1.75,4.16.85,5.94,3.07,5.85,7.45-.13,6.06-.33,12.12-.49,18.17a6,6,0,0,0,.93,3.94,6.51,6.51,0,0,1,.67,3.64,3.4,3.4,0,0,0,1.65,3.21c3.54,2.38,6.95,5,10.55,7.27a12.34,12.34,0,0,0,4.4,1.54c2.91.54,5.86.84,8.85,1.25,1.52,5.88,3.06,11.53,4.38,17.22a10,10,0,0,1-.23,4.41,7.69,7.69,0,0,0,.85,6.28c.53.83.81,1.83,1.37,2.64,2.29,3.36,2.57,7.22,2.85,11.08.21,3.07.46,6.14.7,9.21a4.94,4.94,0,0,1-2.39,5c-.49.33-.92.78-1.42,1.08-3.6,2.2-5.07,5.76-6.07,9.57a3.28,3.28,0,0,0,.38,2.19c.55,1.05,1.41,1.93,2,2.95a4.26,4.26,0,0,1,.77,2.17c-.25,4-.64,7.9-1,11.74-4.24,1.56-4,6.14-6.76,8.87-2.67-.35-5.74-.17-8.29-1.24-2.88-1.21-5.5-2.92-8.76-3.11-.5,0-1-.89-1.44-1.43-1.13-1.38-2.18-2.83-3.33-4.2s-2.33-3.29-4.75-3.07a1.75,1.75,0,0,1-1.26-.7c-1.34-1.72-3.16-1.76-5.11-1.8-3.58-.07-7.17-.16-10.72-.56a10.45,10.45,0,0,1-3.95-1.81c-2.28-1.41-4.65-2.85-4.45-6.11a.81.81,0,0,0-.17-.56c-2.91-2.77-4.66-6.74-8.73-8.33-2.22-.87-4.35-2-6.56-2.86a2.94,2.94,0,0,1-2.07-2.84,12.91,12.91,0,0,0-5-9.46c-3.11-2.26-5.29-5.38-8.3-7.64a3.45,3.45,0,0,1-.85-1.8,5.3,5.3,0,0,1,0-1.49c.05-4.86.06-4.88-3.58-8.08-4-3.48-7.92-7-12-10.34a11.8,11.8,0,0,0-3.63-1.87,29.5,29.5,0,0,0-3.78-.81c-3.7-.77-7.46-1.5-10.66-3.62s-6.78-2.11-10.52-1.39c-4.17.8-8.43,1.17-12.87,1.75-.39-2.3-.73-4.32-1.12-6.64-3.51.4-6.92.75-10.33,1.19-7.88,1-15.71,2.38-23.71,2.39-8.85,0-17.71.3-26.57.6a6.77,6.77,0,0,1-5.1-1.9c-3.91-3.54-7.86-7-11.78-10.56-2.74-2.46-5.37-5.06-8.22-7.38a21.71,21.71,0,0,0-4.68-2.46c-1.26-.59-2.57-1-4.21-1.67a76.2,76.2,0,0,1,3.39-9.89,3.43,3.43,0,0,1,1.82-1.39q21.39-9.18,42.81-18.29c14.27-6.1,28.46-12.4,42.84-18.21a24,24,0,0,0,11.38-9.1,21,21,0,0,1,10.1-8,65,65,0,0,0,8.35-4,28.59,28.59,0,0,1,14.44-4.12c3.76,0,6.75-1.45,9.6-3.49,2-1.44,4-2.41,6.6-2.09a4.46,4.46,0,0,0,2.87-1.17c4.53-3.67,4.48-3.61,10.36-2.65,3.12.51,6.31.65,9.48.87,1.48.11,3,0,4.73,0v6.31Z" transform="translate(-27.09 -83.54)"/><path class="cls-1" d="M439.34,472V489.9l-11-4c-.84,6.49-1.61,12.54-2.41,18.71l-2.91.29a11.66,11.66,0,0,0-.35,2c-.08,4.68-.09,9.36-.19,14a4,4,0,0,0,1.23,3.22c.15.13.26.3.4.44a16.9,16.9,0,0,1,5.1,11.66,5,5,0,0,0,3.69,5.07c2.69,1,5.23,2.39,8.21,3.79,1.28-1.69,2.56-3.29,3.74-5a4.42,4.42,0,0,1,3.75-1.94c10-.48,20.05-1.13,30.07-1.67,2.47-.13,5,0,7.68,0v4.34a2.14,2.14,0,0,1-.48.41c-3.68,1.63-3.59,1.61-2.8,5.44a10.79,10.79,0,0,1-1.21,7.19,4.56,4.56,0,0,1-5.93,1.89c-1.28-.51-2.63-1.5-3.82-.13a3.84,3.84,0,0,0-.55,4.21,5.16,5.16,0,0,1-.92,6.07,2,2,0,0,0-.3.51c-2.21,4-2.55,4.17-7.61,3.25-.26-1.09-.57-2.32-.84-3.55-.48-2.23-1.48-3-3.51-2.54s-2.68,1.4-2.16,3.67a9.47,9.47,0,0,1,.39,2.33c-.09,3.42-1.93,4.93-5.19,4a32.85,32.85,0,0,1-6.27-2.65c-2.61-1.4-4.25-1.51-6.57.38a23.21,23.21,0,0,0-3.46,3.68c-1.56,2-3.25,2.46-5.7,1.52-3.42-1.31-6.89-2.54-10.69-2.46a8,8,0,0,0-5.22,1.79,29.78,29.78,0,0,1-3.57,2.69c-3.06,1.81-6.19,2.55-9.55.52-2.33-1.4-4.7-1.21-6.51.85a55.54,55.54,0,0,0-4.35,6.63c-1.84.19-4.11.34-6.36.69a7.55,7.55,0,0,0-6.32,5.58c-.72,2.18-1.43,4.36-2.24,6.49-.94,2.47-1.25,2.58-3.73,1.82-3.9-1.19-5.16-.77-7.65,2.54-.95,1.27-1.87,2.58-2.91,3.77-1.39,1.57-1.79,1.68-4.14,1.86-.17-.09-.41-.14-.51-.29-2-3.11-2.16-3.14-5.44-1.68a6.68,6.68,0,0,1-3.09.88c-2.92-.31-5.48.66-8.07,1.72-2.12.86-4.22,1.59-6.65,1-.91-.24-2.08.38-3.1.72a15.5,15.5,0,0,1-10.82-.06,17.49,17.49,0,0,0-11.07-1c-.17,0-.38-.1-.93-.25,2.44-2.71,2.71-5.91,2.38-9.23a126.15,126.15,0,0,1,2.88-19.14,15.7,15.7,0,0,0,.19-3.57c0-6.08,0-12.15,0-18.23v-3.29l27.1-5.26c-.46-6.43-.89-12.46-1.31-18.49a16,16,0,0,1-.09-2.39,9.3,9.3,0,0,0-2.64-7.88c-1.43-1.48-1.35-3.52-1.5-5.36-.45-5.83-.73-11.68-1.1-17.78,4.06-1.44,8.14-3,12.29-4.3a4.84,4.84,0,0,1,2.85.34,38.38,38.38,0,0,1,4.93,2.13,8.52,8.52,0,0,0,5.18,1l10.86-1.4c0-1.6,0-3.06,0-4.52,0-2.35.17-2.57,2.37-3,5.26-1,10.53-2,15.79-3L406.52,483l-14.31-21.58a54.63,54.63,0,0,1,9-.16c2.59,0,5.17.37,7.75.35a5.26,5.26,0,0,1,4.22,1.71c1.83,1.95,3.82,3.76,6,5.89l5.14-5.31c.74,1.41,1.33,2.51,1.91,3.62,4.42.41,8.33-1.71,12.81-2.49C439.16,467.66,439.25,469.81,439.34,472Z" transform="translate(-27.09 -83.54)"/><path class="cls-1" d="M526.2,163.9l-5.55.75c-.52-.85-1-1.68-1.62-2.64a3.08,3.08,0,0,0-1-.15c-8,1.51-16,.87-23.95-.53-2.39-.42-4.52-.27-6.19,1.82a7.72,7.72,0,0,1-2.29,1.88,4.24,4.24,0,0,1-2.43.59,5.66,5.66,0,0,0-4.76,1.1,20.59,20.59,0,0,1-13.72,4.79,21.65,21.65,0,0,0-9.63,2.8c-2.1,1.07-2.29,1.11-3.76-.76a5.54,5.54,0,0,0-5.44-2.16c-7,.62-14.07,1.11-21.1,1.68a8.07,8.07,0,0,1-5.33-1.28c-5.34-3.41-9.78-7.81-14.32-12.12-4.07-3.87-8.7-6.68-14.63-6-2.56.27-4.39-1.59-6.7-2-.17,0-.32-.23-.45-.38-.79-.82-1.55-2.31-2.36-2.34-1.6-.07-3.22.67-4.84,1.08l-.56.1c-1.48-4-1.24-4.82,1.89-7.4,1.59-1.3,3.09-2.73,4.69-4.15-.58-1-1-1.78-1.46-2.55-1.18-2.16-1.09-2.57,1-3.78,2.4-1.39,4.82-2.75,7.34-4.18-.2-.49-.24-.94-.5-1.15-2.63-2.16-2.18-5-1.94-7.89a2.6,2.6,0,0,1,1.58-2.29c2.7-1.46,5.65-2.43,7.9-4.71,1.11-1.13,2.36-.65,3,.88,1,2.27,1.92,4.57,2.92,6.94,2-.22,3.38-1.47,4.75-2.5,1.78-1.33-.29-3.19.51-5l3.41-1.6c-1.81-1.51-3.41-2.87-5.06-4.19-1.08-.87-2.21-1.69-3.35-2.48a19.34,19.34,0,0,1-5.44-6.25c-.93-1.59-1.32-3.42-.21-4.76a4.14,4.14,0,0,1,4.81-1.41,27.38,27.38,0,0,0,3.86.89c.54-1.08,1-2,1.6-3.16l3,.73-1.29,3.4,4.93,3.78c2.57-2.12,5-4,7.27-6.07.78-.73,1-2,1.72-3.39,1.32-.19,3.06-.51,4.81-.7,6-.64,12-1.28,18.09-1.78a5.88,5.88,0,0,1,3,.92c2.88,1.59,5.59,3.47,8.52,4.93,3.73,1.86,7.56,3.52,11.42,5.06,4.43,1.78,9,3.31,13.42,5a8,8,0,0,0,5.2.26c8.05-2.23,16.16-4.21,24.2-6.44A3.92,3.92,0,0,1,516,96.71c2,2.49,4.24,4.72,6.63,7.32,1.65-1.35,3.27-2.6,4.8-4,2.56-2.28,4.1-2.51,6.91-.76q16,9.92,31.91,19.86c3.13,1.95,6.27,3.86,9.4,5.81.82.51,1.6,1.11,2.59,1.8-.46,1-.81,2-1.23,2.82-1.13,2.33-2.31,4.64-3.43,7a10.18,10.18,0,0,1-8.68,6.23c-5.23.56-10.42,1.52-15.61,2.33a21.75,21.75,0,0,0-2.31.68c0,1.64-.17,3.3-.1,5a3.19,3.19,0,0,1-2,3.34c-1,.49-1.85,1.16-2.79,1.71a3.12,3.12,0,0,0-1.93,2.77,2.82,2.82,0,0,1-1,1.71c-3.7,3.32-7.43,6.58-11.2,9.91C525.44,168.61,527,166.07,526.2,163.9Z" transform="translate(-27.09 -83.54)"/><path class="cls-1" d="M375.86,335.09c.06-.71.13-1.42.2-2.13a6.17,6.17,0,0,0,.78-1.25c1.53-4.84,3-9.68,4.52-14.52,3.22,1.27,6.42,2.61,9.68,3.79a13.71,13.71,0,0,0,4.3.94c9.94.2,19.89.27,29.84.44a12,12,0,0,1,3.48.66c2.91,1,5.78,2.06,8.85,3.16,1.8-3.15,1.67-6.8,3.16-9.93,9.54.52,19,1,28.37,1.55q13.84.82,27.68,1.77a9.46,9.46,0,0,1,2.84.74c2.2.92,4.3,2.16,6.56,2.87,4.25,1.32,6.27,5,9,8a2.4,2.4,0,0,1,.59,1.65c-.19,2.25,1.34,3.2,2.79,4.5a15,15,0,0,0,11.79,3.77,42.47,42.47,0,0,1,6,.21,5.65,5.65,0,0,1,4.28,1.75,2.22,2.22,0,0,0,1.51.85c2.24-.28,3.13,1.36,4.23,2.73,1.25,1.54,2.55,3.06,3.71,4.67a3.28,3.28,0,0,0,3.25,1.64,6.75,6.75,0,0,1,5.16,1.79,7.38,7.38,0,0,0,3.25,1.2c2,.35,4.13.53,6.21.68a2.18,2.18,0,0,1,2,1.54,16.17,16.17,0,0,1,1.37,7.36,8,8,0,0,1-2.09.21c-3-.51-5.44.66-7.86,2.12-1.28.76-2.6,1.47-3.93,2.15a13.63,13.63,0,0,1-12.59.3c-2.07-1-4.2-1.8-6.27-2.79-3.84-1.84-7.29-1.36-10.31,1.67a4.57,4.57,0,0,1-3.77,1.4,29.55,29.55,0,0,1-3,0c-3.51-.65-6.09.93-8.5,3.19-1.95,1.84-4.06,3.52-6,5.34a5.76,5.76,0,0,1-4.6,1.57,22.06,22.06,0,0,1-9.14-2.37c-3.07-1.6-6.27-2.93-9.75-4.54-.22,1.34-.39,2.36-.61,3.66a20.26,20.26,0,0,1-4.21.6,5.79,5.79,0,0,0-4.74,2.08,5.47,5.47,0,0,1-4.82,1.75c-.39,0-.79,0-1.19,0-8.06.11-8.06.11-13.95,5.51-1.76,1.61-3.53,3.22-5.38,4.72a4,4,0,0,1-2.34,1,2.51,2.51,0,0,0-2.77,1.75c-.64,1.75-2,2.09-3.59,1.88a7.32,7.32,0,0,0-7.05,2.8c-1.79,2.1-4.56,2.5-7.11,2.49-8.75-.05-17.52-.12-26.25-.6-10.22-.55-20.41-1.53-30.61-2.34-3-.24-5.93-.54-9.28-.85-.07-3.69-1-7.36.84-11q4.7-9,9.24-18.08A38.87,38.87,0,0,0,371,365c1-5.84,2.06-11.68,3-17.54C374.73,343.31,375.26,339.2,375.86,335.09Z" transform="translate(-27.09 -83.54)"/><path class="cls-1" d="M331.26,459.93c-.32-12.44-.62-24.56-.95-36.68-.16-5.86-.32-11.73-.6-17.59-.12-2.33.1-4.78-1.65-7.09a14.69,14.69,0,0,1,2.21-.25c10.43.44,20.87.76,31.29,1.4,10.21.62,20.4,1.46,30.59,2.38,11.4,1,22.84,1.09,34.27,1.1,2.78,0,5.65-.64,7.55-2.93a6,6,0,0,1,6.59-2.22c0,.14.1.43,0,.5-2.84,2.47-3.29,5.66-3,9.19.27,3.26.26,6.55.41,9.82a9.55,9.55,0,0,0,.33,1.56l14.47,1.25v9.13c-8.47-.35-16.88-1.64-25.6-2V439h-7.91c-1.22,2.74-1.23,2.74.57,4.25a11.76,11.76,0,0,0,2.1,1.67c4.51,2.21,5.89,6.45,7.13,10.79a2.39,2.39,0,0,1-.56,2.73c-3.09,2.8-6.15,5.64-9.44,8.67-1.56-1.52-3.2-3.08-4.8-4.68a7.4,7.4,0,0,0-5.8-2.4c-5.08.16-10.16,0-15.23,0-.95,0-1.9.08-3.34.15,2.22,4.14,4.81,7.51,7.11,11.05s4.59,6.94,7.17,10.83L367,489.3v6.88c-3.73.5-7.24,1-10.77,1.4a4.77,4.77,0,0,1-2-.53,13.91,13.91,0,0,1-3-1.31c-3.68-2.59-7.33-2.09-11.19-.37-2.78,1.25-5.74,2.07-8.94,3.19-1.27-4.31-1.45-8.45-2.21-12.65l3.19-.55c-2.16-8.36-4.29-16.65-6.48-25.15Z" transform="translate(-27.09 -83.54)"/><path class="cls-1" d="M381.91,315.61c.29-2.69.47-5.07.83-7.42a24.74,24.74,0,0,0-.11-9.43c-1.2-5.23-2.11-10.52-3.05-15.8a3.81,3.81,0,0,0-1.93-2.81c-3-1.87-6.08-3.78-9.06-5.75a40.74,40.74,0,0,1-3.36-2.8,16.77,16.77,0,0,1,2.46-.51c9.15-.22,18.3-.3,27.45-.66,4.75-.19,9.49-.78,14.22-1.34,5.12-.6,10.22-1.39,15.33-2.07a5.16,5.16,0,0,1,1.21.17c.28,2.1.55,4.12.85,6.43,2.5-.28,4.64-.48,6.78-.78,3.64-.5,7.26-1.15,10.9-1.55a7.3,7.3,0,0,1,4,.52c5.58,3.07,11.63,4.55,17.77,5.84a5.34,5.34,0,0,1,2.37,1c4.83,4.16,9.58,8.39,14.37,12.59a2.06,2.06,0,0,1,.9,2.32,6.45,6.45,0,0,0-.15,1.18,7.33,7.33,0,0,0,2.78,7.24c2.47,2.12,4.69,4.52,7.3,6.52s4.24,6.68,3.77,9.57c-3.43-.14-6.88-.21-10.31-.43-4.36-.27-8.71-.72-13.07-1-5.36-.32-10.73-.48-16.09-.79s-10.5-.73-15.75-1.07c-.88-.06-1.76,0-2.85,0-.94,3.21-1.85,6.31-2.8,9.58a51.87,51.87,0,0,1-5.81-2.13c-4.06-2.08-8.32-1.4-12.57-1.26-3.07.09-6.15.09-9.22,0-4.27-.06-8.55-.14-12.82-.36a15.32,15.32,0,0,1-4.58-1C388.44,318.47,385.28,317,381.91,315.61Z" transform="translate(-27.09 -83.54)"/><path class="cls-1" d="M353,607.7c1.22,1.28,1.27,3,3.19,3a6,6,0,0,0,4.84-1.84c.79-.89,1.45-1.9,2.18-2.84s1.37-1.7,2.05-2.56a3.46,3.46,0,0,1,4.51-1.16c4.3,2.12,5,.23,6.48-3.37.74-1.74,1.31-3.55,1.94-5.33,1.36-3.86,2.88-5,7-5.19,2.15-.11,4.3-.29,5.95-.4a42.89,42.89,0,0,1,2.55-5.92c1.68-2.63,3.63-3,6.34-1.54a8.71,8.71,0,0,0,8.82.09,31,31,0,0,0,5.23-3.43,7.66,7.66,0,0,1,7.26-1.56q4.77,1.19,9.44,2.77a2.94,2.94,0,0,0,3.47-.77c1.51-1.59,3-3.19,4.6-4.7,2.24-2.14,3-2.09,5.74-.53,3.14,1.76,6.39,3.28,10.16,2.89a4.5,4.5,0,0,1,1.15.12c.08,0,.14.11.41.36a21.71,21.71,0,0,1-4.17.62c-3.29-.17-6.25,1-9.26,2-1.51.49-3,1.15-4.52,1.5a2.4,2.4,0,0,0-2.1,3,12.51,12.51,0,0,1,0,1.5c0,4.77,0,4.77,2.73,8.2-2.81.61-5.47,1.34-8.18,1.73-2.46.36-4.61,1.09-6.21,3.09-.15.19-.5.21-.92.38-.13-1.07-.24-2-.4-3.28-4.48-.12-8.73,1.46-13.33,1.71.21-1.64.38-3,.63-4.9l-6.4,3-6.1,2.84c.22,4.53.43,9,.65,13.56l-9.4,4.09c-.3-2.93-.59-5.61-.92-8.78l-9.91,4.43,3.92,5.34c-2.5.81-4.8,1.56-7.1,2.28a.64.64,0,0,1-.55-.05c-1.71-1.75-2.88-.15-4.1.7-.81.57-1.4,1.45-2.23,2a20.84,20.84,0,0,1-4.65,2.48c-3.78,1.21-7.64,2.17-11.49,3.16a10.31,10.31,0,0,0-6,4.16c-1.6,2.23-3.39,4.2-6.5,4.08a2,2,0,0,0-1.08.43c-2.92,2-6.1,2.18-9.45,1.56-1.16-.21-2.38-.16-3.56-.27a5.43,5.43,0,0,0-4.15,1.19,9.11,9.11,0,0,1-6.73,1.92c-2.93-.26-4-2.34-2.32-4.75.9-1.31,2.06-2.43,3-3.71.63-.86,1.46-1.77.79-3s-1.7-1.21-2.84-1.29a24.36,24.36,0,0,1-5-.64,10.92,10.92,0,0,1-3.86-2.13c-2.09-1.76-3.34-4.16-2.71-6.88a6.89,6.89,0,0,1,5.74-5.1,15.84,15.84,0,0,1,9.4.56,16.94,16.94,0,0,0,12.5.48,7,7,0,0,1,2.87-.6c3.12.39,5.87-.61,8.66-1.77,1.82-.75,3.66-1.45,5.77-.92a5,5,0,0,0,2.53-.53C350.66,608.76,351.81,608.21,353,607.7Z" transform="translate(-27.09 -83.54)"/><path class="cls-1" d="M533.51,509.67a5,5,0,0,0,.93-5,2.56,2.56,0,0,1,.37-1.9c.76-1.26,1.68-2.43,2.66-3.81,2,3,4.72,3.35,7.9,2.5,1.49-.4,3.16-.13,4.74-.21,2.5-.14,3-.73,2.42-3.12s1.24-3.77,2.14-5.72c1.49.67,1.55,2.05,1.6,3.06.13,2.27,1.41,3.92,2.58,5.61a4.42,4.42,0,0,0,6.33,1.08c.56-.38,1-.87,1.68-1.41a6.32,6.32,0,0,0,5.16,3.75,7,7,0,0,1,3.08,1.07c2.07,1.5,4.07,1.17,6.19.27a14.92,14.92,0,0,1,2.28-.67c3-.68,4.26.23,4.87,3.76-1.19-.4-2.23-.82-3.31-1.11a17.74,17.74,0,0,0-10.24.67,49.71,49.71,0,0,1-5.47,1.19c-1.93.41-3.87.82-5.8,1.25a5.28,5.28,0,0,1-5.6-1.81c-.84-1-1.71-1.95-2.51-2.95-3.43-4.3-8.08-3.66-10.25,1.42a28.73,28.73,0,0,1-1.17,2.73c-1.27,2.27-2.87,2.7-5.26,1.61C537.15,511.18,535.42,510.49,533.51,509.67Z" transform="translate(-27.09 -83.54)"/><path class="cls-1" d="M513.8,528.14c-.54,1.26-.86,1.9-1.09,2.58a44.56,44.56,0,0,1-1.45,4.5c-.87,1.93-1.79,2.3-3.81,1.82a24,24,0,0,1-2.81-1,4.83,4.83,0,0,0-5.46,1.16c-1.72,1.65-3.42,3.34-5.29,4.81-2.79,2.19-5.72,4.2-8.85,6.48-.15-.7-.27-1.22-.38-1.74-.58-2.8-.57-2.79,2.16-4.19a4.37,4.37,0,0,0,1-.94c.47-.49.83-1.31,1.39-1.46,3.5-1,5.39-3.94,7.87-6.18.88-.8,1.7-1.67,2.51-2.54a2.17,2.17,0,0,1,3.39-.24c.23.19.44.41.68.58,2.16,1.47,3.75.84,4.28-1.75.28-1.36.31-2.77.63-4.12.47-2,1.46-2.65,3.47-2.12a25.7,25.7,0,0,1,4.38,1.76c1,.46,1.87,1.12,2.83,1.65a4.86,4.86,0,0,0,6.47-1c2.79-2.9,6.29-1.78,9.57-1.41,1,.12,1.38,1.31,1.35,2.4a2.91,2.91,0,0,1-2,3,9.71,9.71,0,0,1-2.65.29c-1.79,0-3.58,0-5.37-.06a6.84,6.84,0,0,0-5,1.53c-2,1.63-4,1.2-5.66-.91C515.43,530.31,514.81,529.47,513.8,528.14Z" transform="translate(-27.09 -83.54)"/><path class="cls-1" d="M510.64,518.12c3.09,3.7,4,3.73,7.15.26,1.38,1.16,2.7,2.54,4.84,1.57s3-2.74,2.75-5.28c1.48.51,2.55,2.47,4,1.18,1-.87,1.48-2.28,2.24-3.52a2.2,2.2,0,0,1,1.07,3.37c-1,1.76-.25,3,.87,4.27.75.85,1.34,1.83,2,2.75l-.34.62c-1-.11-2-.19-3.06-.34a8.25,8.25,0,0,0-6.92,2c-2.15,1.88-3.66,2-6.2.68a45.42,45.42,0,0,0-5.53-2.88c-3.79-1.38-6.16.25-6.6,4.28a26.42,26.42,0,0,1-.2,2.67c-.3,1.43-1.11,1.71-2.38.94-.17-.1-.3-.27-.46-.38-2.37-1.57-3.35-1.46-5.44.59a9.68,9.68,0,0,1-2.16,1.68c.37-3.7.09-7.45,1.81-10.87,1.49-3,3.25-3.47,6.19-1.77a3.35,3.35,0,0,0,3.64-.16C508.85,519.21,509.76,518.65,510.64,518.12Z" transform="translate(-27.09 -83.54)"/><path class="cls-1" d="M556.77,509.91a6,6,0,0,1-4.7,1.49,3.15,3.15,0,0,0-2.92,1.09c-1,1-1.93,2-2.94,3a5.55,5.55,0,0,1-6.77,1c-1.51-.72-3.05-1.35-4.81-2.12-.3-.7-.72-1.67-1.16-2.66,1.55-.57,2.77.24,3.89,1,3.45,2.32,7,1.18,8.51-3a19.79,19.79,0,0,1,1-2.47c1.59-3,4.83-3.36,7.09-.83C555,507.48,555.82,508.69,556.77,509.91Z" transform="translate(-27.09 -83.54)"/><path class="cls-2" d="M163.78,437.91a18.55,18.55,0,0,1,1.35-3.16c5.21-7.88,10.49-15.72,15.73-23.58.55-.82,1-1.67,1.73-2.76-2-1.66-3.77-3.35-5.76-4.78a5.4,5.4,0,0,0-2.85-.49c-6.17,0-12.35,0-18.52,0-1,0-1.92-.08-3.21-.13.33-1.21.49-2.07.79-2.87,2.35-6.12,4.68-12.26,7.13-18.35a9,9,0,0,1,2.4-3.68,3.35,3.35,0,0,0,1.21-3.12c0-5,0-10,.06-14.94,0-1,.1-1.94.16-3.25h8.45a14,14,0,0,0,.83-2.17c.62-3.22,1.18-6.45,1.76-9.68.43-2.45.3-2.67-2-3.4-3.13-1-6.29-1.88-9.38-3a15.51,15.51,0,0,1-3-2l-6.49,5.29v-6.63c-11-2.74-22.33-4.72-33.68-7.23a6.62,6.62,0,0,0,.49,5.48c2,3.56,4,7.13,5.92,10.71.52.95,1,1.93,1.68,3.23-10.94,7.48-22.15,14.42-33.57,22.08l19.35,6.37.05.48c-1.75.53-3.49,1.12-5.25,1.58-10.66,2.84-21.31,5.71-32,8.43a6.08,6.08,0,0,0-4.93,4.93c-.28,1.26-.44,2.55-.71,3.81-.18.84-.26,1.89-1.61,1.62.37-2.06.59-4.15,1.12-6.15a7.15,7.15,0,0,1,5.66-5.45c10.8-2.73,21.53-5.71,32.29-8.6l1.66-.48L92.24,370a99.19,99.19,0,0,1,8.81-6.06c2.8-1.9,5.67-3.7,8.51-5.54s5.85-3.78,8.76-5.7,5.6-3.72,8.55-5.69c-1.9-3.44-3.64-6.66-5.45-9.85-1.42-2.51-2.77-4.93-2.62-8.07.09-1.87-.89-3.78-1.29-5.69-.27-1.26-.29-2.58-.58-3.83-.59-2.68-1.85-3.76-4.61-3.66-2.57.1-5.13.5-7.89.79-.17,6.57-5.22,8.66-10.15,11.25-2.67-3.76-6.78-4.47-10.94-5.07-2.53-.36-5-.77-7.64-1.17l-1.22,4.52c-2.37.77-4.5.12-6.6-.38a54.72,54.72,0,0,1-5.42-1.68c-1.89-.66-3.75-1.3-5.89-.27A29.86,29.86,0,0,1,55,321.26a3,3,0,0,0-3.38-1.86c-1,.09-2,.1-3,.28-2.14.41-2.63,1.37-1.84,3.42a2.88,2.88,0,0,0,.41.8c1.24,1.48,1.46,2.9.15,4.53-1.55,1.93-3.2,3.77-5.93,3.22-3.58-.72-7-1.9-8-6.06a10.29,10.29,0,0,0-.55-1.39c-2.82-6.94-2.91-7,.65-13.54.86-1.58,2.53-2.72,3.83-4.07-3.62-3.86-3.93-8.46-.58-12.71,2.15-2.73,2.63-5.48,1-8.58-.37-.69-.66-1.43-1.07-2.33,1.52-1.16,3-2.38,4.51-3.4a2.61,2.61,0,0,0,1.27-3c-.26-1.36-.43-2.73-.7-4.44L59,265.93l.37-3.67c1.36.49,2.63.88,3.83,1.42A2.17,2.17,0,0,0,66,263c1.85-2,2.85-4.16,2.06-7-.62-2.26-.84-4.63-1.27-7.14l3.65-.26a14.38,14.38,0,0,0,.54-6.83c-1-11.59-2.26-23.17-3.2-34.77-.5-6.15-.64-12.33-.76-18.49a34.29,34.29,0,0,1,.74-6.52c.43-2.48.72-2.6,3.37-2.8,4.46-.35,8.92-.74,13.38-1.13.48,0,1-.17,1.78-.32-.46-6.63-.91-13.14-1.36-19.7,1.38-.3,1.82.81,2.48,1.43q9.57,9,19.1,18.06c.49.47,1.06.86,1.66,1.33a6.26,6.26,0,0,0,2.66-2.66,24.82,24.82,0,0,1,4.84-5.62,11,11,0,0,0,4.17-10.19,41,41,0,0,1,.35-6l5.55-.31c1.69-4.51,3.38-9,5.06-13.51,1.75-.28,3.3,0,4.67-1.24.67-.63,2.25-.3,3.81-.43l-3.42-3.17a75,75,0,0,1,8.49-.74c3,.09,4.34,1.61,4.16,4.48a3.14,3.14,0,0,0,1.87,3.36c1.12.57,2.23,1.17,3.57,1.87,1.12-3.29-.08-6.4.71-9.52h8.42v4.95c3.44.16,6.67.12,9.82,0,1.18-1.09-.66-3.51,2.33-3.44l-23.3-30.47c2.08-.61,3.67-1.11,5.27-1.55,7-1.89,14-3.81,21-5.6,1.88-.48,2.79-1.29,3-3.34.34-3,1.12-6,1.77-9.34,3.16,0,6.19-.35,9.08.13,1.67.28,3.25,1.74,4.63,3a6,6,0,0,0,4.83,1.81,8.33,8.33,0,0,0,2.79-.77,6.52,6.52,0,0,1,8.69,1.91,16.8,16.8,0,0,1,1,1.5,2.56,2.56,0,0,0,2.68,1.48,9.27,9.27,0,0,1,1.49,0c4.37.11,5.72,1.6,5.18,5.94a9.94,9.94,0,0,1-1.18,2.59c.45.63.45.63,5.83,1.27,0,2,.09,4.05.12,6.1a38.84,38.84,0,0,0,0,4.18,5.58,5.58,0,0,0,1,2.62c2,2.71,1.69,4.71-1.22,6.37a1.35,1.35,0,0,1-.53.25c-4.41.38-5.62,3.9-7.05,7.19-.24.55-.45,1.1-.65,1.67-.68,1.89-1.34,3.79-3.83,3.95v3.67c.94.57,1.64.4,2.11-.42s1-1.95,1.52-2.92l1-.45,3.92-.49.55.56c-1,1.88-3,.46-4.41,1.41-.68,1.28-1.42,2.67-2.17,4.1l-4.26.27c-.27,2.45-.56,4.7.22,6.92,1.45,4.13,3,8.21,4.35,12.37a3.77,3.77,0,0,0,3.65,2.84,21.11,21.11,0,0,1,5.78,1.22q15.48,6.63,30.84,13.55c8,3.59,15.88,7.34,23.8,11.06a49.2,49.2,0,0,1,9.94,5.93c10.93,8.77,22,17.35,33,26a8.46,8.46,0,0,0,1.72.77c0-2.31,0-4.29,0-6.26a6.71,6.71,0,0,1,.51-3.18c2-3.19,3.79-6.61,7-8.76a4.38,4.38,0,0,0,2.15-4.22,4.52,4.52,0,0,0-1.43-3.71,17.57,17.57,0,0,1-2-2.24l.3-.31,1.18-.67c0-.58,0-1.15,0-1.72l.91-.11a9.11,9.11,0,0,0,1.73,4.94,6.68,6.68,0,0,1-1.4,8.48,29.46,29.46,0,0,0-6.24,7.12,9.46,9.46,0,0,0-1.64,5.6c.05,3.49.05,7-.08,10.45a29.78,29.78,0,0,1-.78,4.27c3.57-.15,7.43.46,11.32-1.29,11.7-5.23,23.53-10.2,35.31-15.24,16.08-6.88,32.12-13.89,48.3-20.52a23.56,23.56,0,0,0,10.81-8.43l.51-.74a18.74,18.74,0,0,1,9.9-7.69,5.42,5.42,0,0,0,.56-.22l6.85-3.44-2.8-3.24c-8.39.53-16.61,1-24.82,1.62a8.58,8.58,0,0,1-5.43-1.64c-5.55-3.31-9.72-8.18-14.51-12.35-3.76-3.28-7.76-5.83-13.06-5.27a5.06,5.06,0,0,1-1.78,0,21.77,21.77,0,0,1-2.67-.95,7.35,7.35,0,0,0-1.84-.75A3.16,3.16,0,0,1,382,152c-1.46-1.95-2.94-2.14-5-.77-1,.63-1.9,1.32-2.86,2-3.61-7.44-4.42-8.29-9.36-9.87a15.44,15.44,0,0,0-1.22,2.31c-.81,2.4-2.82,3.28-4.93,3.89a14.89,14.89,0,0,1-3.85.26c-2.36.05-4.51.44-5.94,2.66a11,11,0,0,1-2,1.81l-.56-.58a31.35,31.35,0,0,1,3-3.67,5.84,5.84,0,0,1,2.83-1.29,38.65,38.65,0,0,1,5.05-.43,5.58,5.58,0,0,0,5.44-3.87,34.05,34.05,0,0,1,1.6-3.25c3.23,2.13,7.22,2.71,9.08,7.13a6.74,6.74,0,0,0,.14-1.73c-.44-1.62.37-2.54,1.57-3.49,1.86-1.46,3.56-3.12,5.38-4.75l-2.88-5.11c1.64-1,3.22-2,4.81-2.9s3.1-1.77,4.58-2.62c0-.34.08-.6,0-.68-2.89-2.65-2-6-1.66-9.23.06-.61.82-1.3,1.42-1.68,1.17-.73,2.51-1.21,3.7-1.92,1.44-.86,2.77-1.9,4.19-2.8a8.25,8.25,0,0,1,2.31-1.17c2.1-.52,2.34-.37,3.19,1.58s1.7,4,2.54,6c3.44-.86,3.46-.9,2.91-6.11l2.35-1.59c-2.48-2-4.69-3.94-7.13-5.59-2.77-1.88-4.28-4.69-5.83-7.44-1.35-2.39-.15-4.81,2.2-6.14s4.79-.6,7.29.13l1.46-3,6.31.94-2,4,3.26,2.6c2.13-1.81,4.36-3.47,6.27-5.43.72-.74.73-2.17,1.15-3.61,3-.33,6.12-.69,9.25-1,4.95-.52,9.9-1,14.84-1.52a5.51,5.51,0,0,1,3.95,1c1.13.79,2.44,1.35,3.58,2.14,6.79,4.73,14.59,7.21,22.22,10.07,2.23.83,4.56,1.49,6.69,2.52a8.44,8.44,0,0,0,6.32.28c8.05-2.2,16.15-4.25,24.18-6.53A3.4,3.4,0,0,1,516,94.78c2.12,2.5,4.39,4.87,6.75,7.46,1.56-1.28,3-2.46,4.44-3.65,2.79-2.32,4.34-2.49,7.45-.61,4,2.42,8,4.91,11.93,7.38L578,124.92c.58.36,1.11.8,1.85,1.33-.35.86-.63,1.68-1,2.45-1.46,3.06-2.88,6.13-4.44,9.13a10.76,10.76,0,0,1-8.23,6.11c-5,.77-10,1.54-15,2.28-2.59.38-3.18.6-2.94,3.12.34,3.57-1.25,5.51-4.22,6.91-1.31.62-2.73,1.29-2.55,3.25,0,.46-.48,1.09-.9,1.46-4.24,3.74-8.53,7.44-12.85,11.19-2.31-1.67-3-3.83-2.76-6.6l-5.09.48c-.58-.92-1.09-1.74-1.74-2.75l-5.34.94a13.13,13.13,0,0,0,0,2.19c.7,3.85-1,6.24-4.48,7.66l-.58-.64,3.56-3v-6.31c-1.75,0-3.25.09-4.73,0-3.17-.22-6.36-.36-9.48-.87-5.88-1-5.83-1-10.36,2.65a4.46,4.46,0,0,1-2.87,1.17c-2.6-.32-4.59.65-6.6,2.09-2.85,2-5.84,3.54-9.6,3.49a28.59,28.59,0,0,0-14.44,4.12,65,65,0,0,1-8.35,4,21,21,0,0,0-10.1,8,24,24,0,0,1-11.38,9.1C409,203.64,394.81,209.94,380.54,216S352,228.21,337.73,234.33a3.43,3.43,0,0,0-1.82,1.39,76.2,76.2,0,0,0-3.39,9.89c1.64.64,3,1.08,4.21,1.67a21.71,21.71,0,0,1,4.68,2.46c2.85,2.32,5.48,4.92,8.22,7.38,3.92,3.53,7.87,7,11.78,10.56a6.77,6.77,0,0,0,5.1,1.9c8.86-.3,17.72-.58,26.57-.6,8,0,15.83-1.36,23.71-2.39,3.41-.44,6.82-.79,10.33-1.19.39,2.32.73,4.34,1.12,6.64,4.44-.58,8.7-1,12.87-1.75,3.74-.72,7.18-.83,10.52,1.39s7,2.85,10.66,3.62a29.5,29.5,0,0,1,3.78.81A11.8,11.8,0,0,1,469.7,278c4.05,3.37,8,6.86,12,10.34,3.64,3.2,3.63,3.22,3.58,8.08a5.3,5.3,0,0,0,0,1.49,3.45,3.45,0,0,0,.85,1.8c3,2.26,5.19,5.38,8.3,7.64a12.91,12.91,0,0,1,5,9.46,2.94,2.94,0,0,0,2.07,2.84c2.21.9,4.34,2,6.56,2.86,4.07,1.59,5.82,5.56,8.73,8.33a.81.81,0,0,1,.17.56c-.2,3.26,2.17,4.7,4.45,6.11a10.45,10.45,0,0,0,3.95,1.81c3.55.4,7.14.49,10.72.56,2,0,3.77.08,5.11,1.8a1.75,1.75,0,0,0,1.26.7c2.42-.22,3.49,1.57,4.75,3.07s2.2,2.82,3.33,4.2c.44.54.94,1.4,1.44,1.43,3.26.19,5.88,1.9,8.76,3.11,2.55,1.07,5.62.89,8.29,1.24,2.74-2.73,2.52-7.31,6.76-8.87.33-3.84.72-7.78,1-11.74a4.26,4.26,0,0,0-.77-2.17c-.6-1-1.46-1.9-2-2.95a3.28,3.28,0,0,1-.38-2.19c1-3.81,2.47-7.37,6.07-9.57.5-.3.93-.75,1.42-1.08a4.94,4.94,0,0,0,2.39-5h1.05c.69,2.66-.26,4.56-2.56,6-1.25.8-2.26,1.95-3.46,2.84-2.49,1.83-2.64,4.79-3.51,7.36-.2.59.52,1.68,1.08,2.3a8.13,8.13,0,0,1,1.91,6.87c-.42,3.55-.56,7.13-.84,10.87-4.43.68-4.56,4.9-6.29,7.82-.29.49.12,1.56.46,2.23,1.42,2.79,1.41,5.74,1.2,9.14-1.56,0-3.11.08-4.65,0a7.34,7.34,0,0,0-4.55,1c-1.1.69-2.37,1.11-3.4,1.87a14.75,14.75,0,0,1-10.44,2.63,16.63,16.63,0,0,1-4.32-.85c-2.41-.9-4.76-2-7.09-3.12-3.19-1.5-6.2-1.45-8.76,1.14a6.88,6.88,0,0,1-6.19,2.15,11.33,11.33,0,0,0-10.65,3.76c-1.8,2-4.07,3.51-6,5.31a4,4,0,0,1-3.26,1,28.69,28.69,0,0,1-11.93-3.35c-2-1.09-4.12-2-6.38-3-.25,1.11-.45,2-.71,3.21-1.78.09-3.54.26-5.3.23a4.4,4.4,0,0,0-3.72,1.46,7.2,7.2,0,0,1-6.63,2.6c-5.56-.64-10.33.68-14,5.24a41.45,41.45,0,0,1-4.64,4.21c-1.27,1.17-2.59,2.16-4.27,1.61-2,2.51-3.8,4.84-5.59,7.21a3.46,3.46,0,0,0-.81,1.84c0,4.76.11,9.51.18,14.48l14.72,1.2c.22,3.94.43,7.76.66,12l-26.23-2.28c.18,3.9.35,7.42.53,11.32H420.5c-.87,1.32-.19,1.84.44,2.32,1.74,1.34,3.54,2.59,5.22,4a6.17,6.17,0,0,1,1.85,2.23c1,2.48,1.81,5.06,2.73,7.58a2.11,2.11,0,0,1-.81,2.6c-1.45,1.19-2.85,2.46-4.39,3.8l1.39,3.29a15.94,15.94,0,0,0,8.51-1.51c1.5-.62,3-1.16,4.84.34,0,2.18,0,4.65,0,7.11l-.93.05c-.09-2.14-.18-4.29-.29-6.89-4.48.78-8.39,2.9-12.81,2.49-.58-1.11-1.17-2.21-1.91-3.62l-5.14,5.31c-2.19-2.13-4.18-3.94-6-5.89a5.26,5.26,0,0,0-4.22-1.71c-2.58,0-5.16-.3-7.75-.35a54.63,54.63,0,0,0-9,.16L406.52,483l-19.79,3.84c-5.26,1-10.53,2-15.79,3-2.2.42-2.35.64-2.37,3,0,1.46,0,2.92,0,4.52l-10.86,1.4a8.52,8.52,0,0,1-5.18-1,38.38,38.38,0,0,0-4.93-2.13,4.84,4.84,0,0,0-2.85-.34c-4.15,1.33-8.23,2.86-12.29,4.3.37,6.1.65,11.95,1.1,17.78.15,1.84.07,3.88,1.5,5.36a9.3,9.3,0,0,1,2.64,7.88,16,16,0,0,0,.09,2.39c.42,6,.85,12.06,1.31,18.49L312,556.82v3.29c0,6.08,0,12.15,0,18.23a15.7,15.7,0,0,1-.19,3.57,126.15,126.15,0,0,0-2.88,19.14L308,601c.07-1.84.13-3.68.22-5.51.05-.84-.06-1.55-1-1.81v-1c.39-.4,1.05-.76,1.13-1.21.93-5.68,2.72-11.21,2.47-17.08-.22-5.27-.05-10.56,0-15.84,0-.88.08-1.76.13-2.8,8.88-2.3,18-3.23,26.42-5.46-.28-5.91-.56-11.36-.81-16.82-.18-4-.16-8-3.38-11a3.62,3.62,0,0,1-.76-2.17c-.43-5.25-.78-10.5-1.17-15.76-.14-1.9.44-4-1.58-5.4-.29-.21-.25-.93-.34-1.41-.31-1.66-.65-3.32-.9-5-.4-2.72-.75-5.45-1.15-8.34l3.15-.67c-.86-2.77-1.66-5.37-2.47-8-5.73,1.42-11.11,2.87-16.54,4a24.63,24.63,0,0,1-6.48.33c-2.67-.15-5.32-.64-8-1q-9-1.12-18-2.22c-2.62-.31-5.26-.54-8-.81l-1.94,7.85-.91-.09c1.17-6.41,2.34-12.82,3.57-19.53-4.11-.68-7.93-1.22-11.71-2a56.24,56.24,0,0,1-9.22-2.19c-5.68-2.12-11.2-4.64-16.8-7-1.62-.67-3.28-1.23-5.07-1.89-3.56,9.27-6.38,18.45-9.89,27.39l-3.6-.61c-.08.65-.18,1.14-.19,1.62-.12,4,.44,8.1-.5,11.86s-3.41,7.37-5.2,11a8.5,8.5,0,0,0-.38.81c-.3.81-.58,1.62-.89,2.48,1,.49,1.76.93,2.58,1.28,7.49,3.21,15.06,6.24,22.46,9.66a81,81,0,0,0,22.41,6.85c1.26.19,2.55.2,3.82.29h1.11c-2.88,12.24-5.77,24.48-8.68,36.84,11.73,1.3,23.37,1.93,35.13,3.46-.86,6.46-1.68,12.59-2.49,18.65l3.15.87c-.27,1.46-.51,2.79-.76,4.12h-1c.09-.88.17-1.76.28-2.77l-2.91-.65c-.11-6.3,1.77-12.44,2.08-19.08-2.48-.28-4.88-.59-7.29-.82q-12.58-1.25-25.16-2.44l-.58,0c-2.05.3-1.23,2.14-1.73,3.26-.07.3-.14.6-.22.9-.12.5-.25,1-.37,1.51l-.21.87L249.2,570h-1.06a6.56,6.56,0,0,1,.11-1.18q3.36-13.75,6.74-27.5c1.24-5.08,2.44-10.17,3.7-15.47-2.17-.47-4.1-.87-6-1.3-3.48-.78-7.14-1.13-10.4-2.46-11.59-4.72-23-9.78-34.55-14.72a17.14,17.14,0,0,1-1.59-.86c.88-2,1.65-3.78,2.49-5.57,1.59-3.42,3.86-6.68,4.65-10.28s.21-7.72.24-11.6c0-1,.06-2.08.1-3.35l4.44,1.43q4.67-13.29,9.25-26.28a8.33,8.33,0,0,0-1-.8c-5.91-2.59-11.82-5.2-17.76-7.74-2.73-1.16-5.52-2.18-8.29-3.27l-1.29-.49-26.59-11.78c-.62.77-1.2,1.41-1.69,2.12-1.73,2.55-3.4,5.14-5.17,7.66A8.2,8.2,0,0,1,163.78,437.91Zm120.66-22.73h-1.1c.24-1.55-.38-2.21-1.95-2.64-9.69-2.64-19.33-5.42-29-8.14-1.5-.43-3-.84-4.67-1.3-6.19,15.66-12.27,31.06-18.33,46.41a5.51,5.51,0,0,0,1,.76c4.86,2,9.7,4.13,14.6,6.06a96.82,96.82,0,0,0,11.21,3.94c3.73,1,7.64,1.24,11.45,1.91,4.31.76,4.3.81,5.56-3.37h1.11c-.88,4.27-1.74,8.55-2.63,12.83-.6,2.9-.46,3,2.38,3.32,6.11.68,12.22,1.47,18.33,2.18,3.22.37,6.44.67,10.17,1.05-2.94-21.49-5.81-42.48-8.66-63.36-2.76-.32-5.2-.7-7.66-.83C285.65,414,285,414.76,284.44,415.18Zm28.2-67.56c-1.06-3.24-1.37-6.76-3.64-9.77-6.69,3.1-13.27,6.12-19.8,9.23a2.72,2.72,0,0,0-1.12,1.84,9.22,9.22,0,0,0,.15,2.66c.53,4.74,1.08,9.47,1.61,14.2.67,6,1.31,12,2,18.05.74,6.61,1.47,13.21,2.23,19.82.35,3,.76,6,1.16,9.17,6.35-.05,12.28.18,17.42-3.72,1.57-1.19,3.51-1.89,5.13-3a11.47,11.47,0,0,1,8.12-2.17,8.65,8.65,0,0,0,1.93-.21c.82-2-.11-3.16-1.35-4.3s-2.25-2.14-2.39-3.95c-.22-3-.71-5.91-1.08-8.86l.9-.09c.69,3.29,1.37,6.57,2.1,10.09,10.6.28,21.11,1.26,32,1.35,0-2.17.1-3.94,0-5.7A11.35,11.35,0,0,1,359.4,386c3.2-6.05,6.29-12.16,9.37-18.27a29.3,29.3,0,0,0,1.23-3.32l1,.56a38.87,38.87,0,0,1-1.52,4.16q-4.54,9.08-9.24,18.08c-1.88,3.6-.91,7.27-.84,11,3.35.31,6.31.61,9.28.85,10.2.81,20.39,1.79,30.61,2.34,8.73.48,17.5.55,26.25.6,2.55,0,5.32-.39,7.11-2.49a7.32,7.32,0,0,1,7.05-2.8c1.6.21,2.95-.13,3.59-1.88A2.51,2.51,0,0,1,446.1,393a4,4,0,0,0,2.34-1c1.85-1.5,3.62-3.11,5.38-4.72,5.89-5.4,5.89-5.4,13.95-5.51.4,0,.8,0,1.19,0a5.47,5.47,0,0,0,4.82-1.75,5.79,5.79,0,0,1,4.74-2.08,20.26,20.26,0,0,0,4.21-.6c.22-1.3.39-2.32.61-3.66,3.48,1.61,6.68,2.94,9.75,4.54a22.06,22.06,0,0,0,9.14,2.37,5.76,5.76,0,0,0,4.6-1.57c2-1.82,4.09-3.5,6-5.34,2.41-2.26,5-3.84,8.5-3.19a29.55,29.55,0,0,0,3,0,4.57,4.57,0,0,0,3.77-1.4c3-3,6.47-3.51,10.31-1.67,2.07,1,4.2,1.83,6.27,2.79a13.63,13.63,0,0,0,12.59-.3c1.33-.68,2.65-1.39,3.93-2.15,2.42-1.46,4.89-2.63,7.86-2.12a8,8,0,0,0,2.09-.21,16.17,16.17,0,0,0-1.37-7.36,2.18,2.18,0,0,0-2-1.54c-2.08-.15-4.16-.33-6.21-.68a7.38,7.38,0,0,1-3.25-1.2,6.75,6.75,0,0,0-5.16-1.79A3.28,3.28,0,0,1,550,351.3c-1.16-1.61-2.46-3.13-3.71-4.67-1.1-1.37-2-3-4.23-2.73a2.22,2.22,0,0,1-1.51-.85,5.65,5.65,0,0,0-4.28-1.75,42.47,42.47,0,0,0-6-.21,15,15,0,0,1-11.79-3.77c-1.45-1.3-3-2.25-2.79-4.5a2.4,2.4,0,0,0-.59-1.65c-2.72-3-4.74-6.67-9-8-2.26-.71-4.36-1.95-6.56-2.87a9.46,9.46,0,0,0-2.84-.74q-13.85-.93-27.68-1.77c-9.41-.55-18.83-1-28.37-1.55-1.49,3.13-1.36,6.78-3.16,9.93-3.07-1.1-5.94-2.19-8.85-3.16a12,12,0,0,0-3.48-.66c-9.95-.17-19.9-.24-29.84-.44A13.71,13.71,0,0,1,391,321c-3.26-1.18-6.46-2.52-9.68-3.79l-.77-.85c.22-2.37.46-4.74.65-7.12s.79-5,.44-7.39c-.89-6-2.19-11.92-3.37-17.86a3.62,3.62,0,0,0-.93-2.12c-3.32-2.28-6.73-4.42-10.24-6.69-5,8-9.18,15.95-14.18,23.59a37.69,37.69,0,0,1-3.23-2.26c-2.48-2.13-5.12-3.33-8.47-2.23a12.66,12.66,0,0,1-3,.19c-4.17.26-8.29.62-11.91,3.1a24,24,0,0,1-4.51,2.32c-1.59.66-3.29,1-4.56-.69-.74-1-1.6-.54-2.42-.29q-5.68,1.77-11.37,3.61a21.72,21.72,0,0,0-2.24,1c3.81,13.17,7,26.44,11.56,39.34,4-.52,7.65-1,11.28-1.48,5.52-.69,11-1.65,16.6-1.51,6.76.18,13.54.11,20.31.06a7.22,7.22,0,0,0,3.38-.75c3.14-1.71,6.19-3.59,9.24-5.47a11.85,11.85,0,0,0,1.73-1.6l.68.84c-.07.71-.14,1.42-.2,2.13l-1.25-.06a25.14,25.14,0,0,0-2.42,1.09c-2.14,1.27-4.29,2.53-6.34,3.93a9.5,9.5,0,0,1-5.59,1.56c-12.12.12-24.28-.94-36.34,1.2-3.49.62-7,1-10.66,1.45v2Zm-136.27-69.3.89.08-.24,3.26,20,2.14c.32,5.78.62,11.19.93,16.89l17.77-1c.48-4.88-.21-9.44.33-14l16.37-1c-.08-1-.14-1.68-.19-2.36-.31-4.26-.78-8.51-.86-12.77-.08-3.79,2.16-5.36,5.81-4.45.95.24,1.89.6,2.83.89l3.09,1c.37-1.35,0-2-.95-2.43-1.27-.57-2.53-1.17-3.79-1.75-4.43-2-9-3.8-13.26-6.11a59.68,59.68,0,0,1-14.29-11.08c-3.3-3.38-7.42-6-11.17-8.88l-10.71-.24a1.94,1.94,0,0,0-.59,0,11.71,11.71,0,0,0-2.81.82c-2.83,1.58-5.51,3.49-9.65,3.46a20.58,20.58,0,0,0,2,2.33,40.72,40.72,0,0,0,3.59,2.67c1.48,1,2.28,2.11,1.47,4a16.25,16.25,0,0,0-.7,2.89l-.92-.14c.43-2.58.61-4.79-2-6.82-3.37-2.62-6.29-3.54-9.75-.52a3.53,3.53,0,0,1-3.89.46,12.52,12.52,0,0,0-4.35-.7c-11.64,0-23.28.12-34.92-.09-4.7-.08-9.07.42-13,3.07a4.46,4.46,0,0,1-1.61.75c-2.12.37-4.43,1-6.23-.48a3.65,3.65,0,0,0-2.6-1c-3,0-6,0-9,0a10.73,10.73,0,0,0-1.74.32v3.65l4,.93c2.15,7.19,9.36,15.1,15.91,14.09l1.7-3.43a29.92,29.92,0,0,0,1.93,2.55,7.09,7.09,0,0,0,2.22,1.89,22.55,22.55,0,0,0,7.16,1.83c3.32.23,6.72,0,10,1.36a18.46,18.46,0,0,0,6,1.32c3,.22,6.1.06,9.49.06v9.6c3.4,0,6.47.19,9.51,0a19.09,19.09,0,0,1,11.44,2.48,24.73,24.73,0,0,0,3.21,1.33C175.38,282.55,175.87,280.44,176.37,278.32ZM526.2,163.9c.83,2.17-.76,4.71,1.8,6.32,3.77-3.33,7.5-6.59,11.2-9.91a2.82,2.82,0,0,0,1-1.71,3.12,3.12,0,0,1,1.93-2.77c.94-.55,1.82-1.22,2.79-1.71a3.19,3.19,0,0,0,2-3.34c-.07-1.66.06-3.32.1-5a21.75,21.75,0,0,1,2.31-.68c5.19-.81,10.38-1.77,15.61-2.33a10.18,10.18,0,0,0,8.68-6.23c1.12-2.33,2.3-4.64,3.43-7,.42-.86.77-1.77,1.23-2.82-1-.69-1.77-1.29-2.59-1.8-3.13-1.95-6.27-3.86-9.4-5.81q-16-9.93-31.91-19.86c-2.81-1.75-4.35-1.52-6.91.76-1.53,1.35-3.15,2.6-4.8,4-2.39-2.6-4.68-4.83-6.63-7.32a3.92,3.92,0,0,0-4.84-1.59c-8,2.23-16.15,4.21-24.2,6.44a8,8,0,0,1-5.2-.26c-4.47-1.7-9-3.23-13.42-5-3.86-1.54-7.69-3.2-11.42-5.06-2.93-1.46-5.64-3.34-8.52-4.93a5.88,5.88,0,0,0-3-.92c-6,.5-12.07,1.14-18.09,1.78-1.75.19-3.49.51-4.81.7-.68,1.38-.94,2.66-1.72,3.39-2.25,2.09-4.7,4-7.27,6.07l-4.93-3.78,1.29-3.4-3-.73c-.58,1.14-1.06,2.08-1.6,3.16a27.38,27.38,0,0,1-3.86-.89,4.14,4.14,0,0,0-4.81,1.41c-1.11,1.34-.72,3.17.21,4.76a19.34,19.34,0,0,0,5.44,6.25c1.14.79,2.27,1.61,3.35,2.48,1.65,1.32,3.25,2.68,5.06,4.19l-3.41,1.6c-.8,1.79,1.27,3.65-.51,5-1.37,1-2.73,2.28-4.75,2.5-1-2.37-1.92-4.67-2.92-6.94-.67-1.53-1.92-2-3-.88-2.25,2.28-5.2,3.25-7.9,4.71a2.6,2.6,0,0,0-1.58,2.29c-.24,2.86-.69,5.73,1.94,7.89.26.21.3.66.5,1.15-2.52,1.43-4.94,2.79-7.34,4.18-2.09,1.21-2.18,1.62-1,3.78.43.77.88,1.53,1.46,2.55-1.6,1.42-3.1,2.85-4.69,4.15-3.13,2.58-3.37,3.4-1.89,7.4l.56-.1c1.62-.41,3.24-1.15,4.84-1.08.81,0,1.57,1.52,2.36,2.34.13.15.28.35.45.38,2.31.36,4.14,2.22,6.7,2,5.93-.63,10.56,2.18,14.63,6,4.54,4.31,9,8.71,14.32,12.12a8.07,8.07,0,0,0,5.33,1.28c7-.57,14.07-1.06,21.1-1.68a5.54,5.54,0,0,1,5.44,2.16c1.47,1.87,1.66,1.83,3.76.76a21.65,21.65,0,0,1,9.63-2.8,20.59,20.59,0,0,0,13.72-4.79,5.66,5.66,0,0,1,4.76-1.1,4.24,4.24,0,0,0,2.43-.59,7.72,7.72,0,0,0,2.29-1.88c1.67-2.09,3.8-2.24,6.19-1.82,7.95,1.4,15.93,2,23.95.53a3.08,3.08,0,0,1,1,.15c.58,1,1.1,1.79,1.62,2.64ZM56.89,322c5.71-.55,10.46,3.95,16.46,2.84L74.7,320c6.86,1.85,14.43.78,20.2,6.19a34,34,0,0,0,4.16-2.53,11.5,11.5,0,0,0,3.12-3.45c.68-1.34.67-3,1-4.65,2.91-.39,5.84-.88,8.79-1.15a5.69,5.69,0,0,1,6.25,4.77c.33,1.55.49,3.14.69,4.72.29,2.21.45,2.4,2.67,2.87q15.74,3.3,31.49,6.61c.94.2,1.84.56,2.69.82.1,1.4.19,2.53.32,4.19l7.18-5.67c-.12-6.41.19-12.95-.78-19.48l-11.08-2.78c0-3-.11-5.53,0-8.11.11-2.08-.16-3.75-2.62-4.22V272.93c-3.31,0-6.46.07-9.6,0a8.6,8.6,0,0,1-3.72-.8,13.22,13.22,0,0,0-7.17-1.58,20,20,0,0,1-4.17-.09c-3.52-.59-7.06-1.2-9.52-4.22-.09-.1-.34-.07-.54-.11l-1.46,1.9c-4.16-.41-7.88-1.47-10.63-4.49a45,45,0,0,1-5.47-7c-1.33-2.2-2.51-4.2-5.68-4.05,0-1.11,0-2,0-2.86.19-5.06.46-10.13.54-15.2a5.31,5.31,0,0,1,1.73-3.91q11.46-11.78,22.84-23.62c3.16-3.29,6.25-6.65,9.53-10.15-1.27-1-2.44-1.84-3.6-2.74-3.78-2.89-7.73-5.52-10.81-9.29a119.31,119.31,0,0,0-9-9.55c-4.61-4.54-9.34-9-14-13.41-.33-.31-.73-.54-1.54-1.13C87,167,87.37,172.88,87.8,179c-1.74.23-3.2.49-4.66.6-3.76.28-7.53.53-11.31.72-1.63.08-2.65.68-2.76,2.41-.28,4.16-.8,8.32-.77,12.47s.56,8.13,1,12.18c.63,6.43,1.28,12.86,2,19.27a147.59,147.59,0,0,1,1,22,6.17,6.17,0,0,1-.36,1.34l-3.41.46c.42,2.39.9,4.6,1.16,6.83a5.91,5.91,0,0,1-.33,3.4,49.8,49.8,0,0,1-4,5.09l-4.93-1.65c.37,2.2-.59,3-2.39,3.62-4.08,1.27-8.09,2.78-12.11,4.22-2.46.87-2.59,1.11-2.23,3.68a6.8,6.8,0,0,0,.26,1.17,2.51,2.51,0,0,1-1.22,3.27c-1.48,1-2.86,2.08-4.28,3.12.42,1.12.76,2,1.11,3a7.64,7.64,0,0,1-1.14,7.62c-.41.56-.91,1.06-1.28,1.64A9.78,9.78,0,0,0,36,302.38c.32,2.09,2.12,2.71,3.71,3.5.08,0,.12.15.35.45-1.19,1-2.44,1.94-3.59,3a7.69,7.69,0,0,0-2.07,2.44c-2.67,6.83-3.38,5-.37,11.72.32.73.67,1.45.92,2.2,1,3.13,3.67,4,6.42,4.61,1.94.43,3.42-.56,4.6-2.12a3,3,0,0,0-.14-4.08,4.5,4.5,0,0,1-.53-1.38c-.59-2-.19-3.23,1.68-3.81a19.8,19.8,0,0,1,5.82-.89c.91,0,1.91.9,2.69,1.59A10.66,10.66,0,0,1,56.89,322ZM331.26,459.93l-5.63.28c2.19,8.5,4.32,16.79,6.48,25.15l-3.19.55c.76,4.2.94,8.34,2.21,12.65,3.2-1.12,6.16-1.94,8.94-3.19,3.86-1.72,7.51-2.22,11.19.37a13.91,13.91,0,0,0,3,1.31,4.77,4.77,0,0,0,2,.53c3.53-.39,7-.9,10.77-1.4V489.3L404.2,482c-2.58-3.89-4.9-7.35-7.17-10.83s-4.89-6.91-7.11-11.05c1.44-.07,2.39-.16,3.34-.15,5.07,0,10.15.2,15.23,0a7.4,7.4,0,0,1,5.8,2.4c1.6,1.6,3.24,3.16,4.8,4.68,3.29-3,6.35-5.87,9.44-8.67a2.39,2.39,0,0,0,.56-2.73c-1.24-4.34-2.62-8.58-7.13-10.79a11.76,11.76,0,0,1-2.1-1.67c-1.8-1.51-1.79-1.51-.57-4.25h7.91V427.5c8.72.36,17.13,1.65,25.6,2v-9.13l-14.47-1.25a9.55,9.55,0,0,1-.33-1.56c-.15-3.27-.14-6.56-.41-9.82-.3-3.53.15-6.72,3-9.19.08-.07,0-.36,0-.5a6,6,0,0,0-6.59,2.22c-1.9,2.29-4.77,2.93-7.55,2.93-11.43,0-22.87-.08-34.27-1.1-10.19-.92-20.38-1.76-30.59-2.38-10.42-.64-20.86-1-31.29-1.4a14.69,14.69,0,0,0-2.21.25c1.75,2.31,1.53,4.76,1.65,7.09.28,5.86.44,11.73.6,17.59C330.64,435.37,330.94,447.49,331.26,459.93Zm-121.1-266.7c1.9-1,1.38-2.45.8-3.89q-3.68-9.3-7.33-18.6c-.73-1.84-1.46-3.68-.38-6h14.51c-.34-1.25-.52-2.09-.8-2.91-1.31-3.76-2.93-7.43-3.89-11.27-.85-3.4-2.25-7.12,1.12-10.2.35-.32.26-1.12.35-1.7s.16-1.33.25-2.12c2.33-.25,3.15-1.88,3.84-3.73.59-1.58,1.3-3.12,2-4.64,1.09-2.22,2.54-4,5.27-4.32a4.13,4.13,0,0,0,1.66-.64c1.81-1.08,2-3.18.23-4.31a2.39,2.39,0,0,1-1.17-2.45c0-1.4,0-2.79,0-4.19,0-1.94,0-3.89,0-6.12-1.6,0-2.78.1-4,0-2.07-.21-4.21-5.32-2.79-6.92l2.53-.46c-.67-.68-1-1.37-1.57-1.53a8.78,8.78,0,0,0-3.48-.54c-2.32.26-3.66-.69-4.84-2.6-2-3.25-4.5-3.86-7.85-2.14a7.5,7.5,0,0,1-3.67.71c-2.84,0-4.5-1.79-6.42-3.31-.76-.61-1.57-1.53-2.42-1.6-2.63-.19-5.28,0-8,0-.66,3.41-1.39,6.41-1.79,9.46-.24,1.84-1.24,2.51-2.81,2.93q-9.22,2.4-18.44,4.89c-2.24.6-4.46,1.28-6.94,2,3,3.87,5.65,7.43,8.37,11,4.84,6.31,9.7,12.61,14.52,18.93a3.54,3.54,0,0,1,.34,1.11l-2.24.74-.5,2.47H162.1l-.37-4.48h-5.91V146c-2.66.28-4.32-1-6.12-2.08s-3-2.31-2.66-4.73c.27-1.95-.22-2.52-2.22-2.81a32,32,0,0,0-5.33.08c.84,1.77,2.81,1.8,3.41,3.78-1.68,0-3,0-4.39,0a7.48,7.48,0,0,0-2.32.32c-1.46.52-2.86,1.2-4.72,2-1.13,3.07-2.45,6.61-3.73,10.15-1,2.83-1,2.82-3.94,2.92-.75,0-1.51.17-2.61.3,0,2.74-.08,5.32,0,7.88a6.1,6.1,0,0,1-2.1,5,62.73,62.73,0,0,0-5.2,5.37c-1.59,1.89-2.94,4-4.5,6.14,3.2,3.67,6.13,7.67,10.49,10.31,5,3,8.84,8.07,15.17,9.08-.49,2.9,1,5.19,3.21,5.84,2.56.75,5.66,1.33,8-1.08.79.49,1.53,1.32,2.26,1.31,1.93,0,2.81,1.31,3.85,2.48,1.76,2,4.12,2.63,6.48,1.32a4.92,4.92,0,0,1,4.52-.16c.54.21,1.09.39,1.59.57,1.87-1.69,3.74-2.11,5.38-.93,2.49,1.79,4.76,1.35,7-.24l5.09-3.54c.88.4,1.58.79,2.33,1,2.21.75,3.64.28,5.12-1.63,2.14-2.75,4.3-5.48,6.37-8.28a4,4,0,0,1,3.45-1.85,15.3,15.3,0,0,0,4.54-1.1c1.56-.57,3-1.38,4.62-2.12Zm-34.7,45.55A9.16,9.16,0,0,0,183,237.1a11.8,11.8,0,0,1,7.93-1.92,68.25,68.25,0,0,0,6.86,0,6.06,6.06,0,0,1,4.13,1.32c4.77,3.59,9.63,7.05,13.6,11.59a18.8,18.8,0,0,0,3.29,3,87,87,0,0,0,16,8.61c2.71,1.14,5.39,2.34,8.08,3.51a2.75,2.75,0,0,0-.72-2c-2.48-2.71-5-5.43-7.52-8.08a5.15,5.15,0,0,1-1.63-3.36c-.26-3.66-.73-7.31-1.09-11-.44-4.43-.5-8.91-3.1-12.86-1.53-2.32-2.78-4.82-4.1-7.27-3.67-6.83-7.91-13.36-10.46-20.75-.5-1.46-1.13-2.88-1.74-4.39-2.09,1.88-2.41,2.44-4.66-.09-.51.22-1.06.44-1.58.7-2.22,1.11-4.34,2.4-7,2.22-.67,0-1.55.75-2.06,1.38-2.26,2.77-4.38,5.66-6.63,8.44-1.72,2.13-3.38,2.76-5.73,1.68-1.84-.85-3.14-.71-4.53.65a14.36,14.36,0,0,1-2.2,1.53,8.39,8.39,0,0,1-8.9.44,2,2,0,0,0-1.86.05c-1.3,1.38-2.86.91-4.2.57-3.16-.81-5.85.06-8.55,1.77-1.32-1.44-2.76-2.82-4-4.38s-3-1.56-4.54-1.71a23.86,23.86,0,0,0-5.58.41,5.51,5.51,0,0,1-5.78-2.78,12.06,12.06,0,0,1-1.13-3.1l-7.34-3.65a24.65,24.65,0,0,1-1.57,2q-13.31,13.92-26.64,27.81c-1.78,1.87-4.2,3.51-5.08,5.74s-.38,5.3-.44,8c0,1.34.06,2.69.1,4.33h10.45c1.27,0,2.59-.22,3.44,1.21.22.38,1,.51,1.58.56a8.52,8.52,0,0,0,5.72-1.15c3.28-2.15,6.88-2.66,10.78-2.62,12.44.15,24.89,0,37.33.05a8.35,8.35,0,0,1,3.22.33c1.94.85,3.48.27,5-.8a6.43,6.43,0,0,1,4.12-1.45c.17,0,.34-.17.61-.31Zm68.87,106.41a45,45,0,0,0,4.6.59q18.19.38,36.4.66a7.84,7.84,0,0,0,3.15-.69c6.52-2.94,13-5.95,19.51-9a3.86,3.86,0,0,0,.84-.72c-.23-1-.39-1.86-.63-2.72q-4.45-15.78-8.93-31.56c-1.92-6.79-3.95-13.55-5.73-20.37a4.41,4.41,0,0,0-3.72-3.56c-4.83-1.17-9.59-2.58-14.38-3.89q-14.65-4-29.31-8a2.71,2.71,0,0,0-.84.05c-.21.88-.42,1.7-.64,2.63-1-.19-1.73-.29-2.48-.5-1-.3-2.08-.68-3.12-1a15.56,15.56,0,0,0-2.55-.77c-2.7-.4-3.57.24-3.57,2.91,0,2.88.21,5.76.42,8.64a31.82,31.82,0,0,1,.06,8.17c-4.47.22-8.82.42-13.17.65-2.46.13-2.75.44-2.79,2.8,0,1.37,0,2.73,0,4.5l17.32-.75c0,2.91-.06,5.47,0,8,0,.82.23,2,.77,2.36,1.25.74,1.13,1.75,1.12,2.82,0,4.28,0,8.57-.09,12.84s-.34,8.74-.49,13.11c-.05,1.44,0,2.88,0,4.59h8.23Zm137.58-29.58c3.37,1.42,6.53,2.86,9.77,4.09a15.32,15.32,0,0,0,4.58,1c4.27.22,8.55.3,12.82.36,3.07.05,6.15.05,9.22,0,4.25-.14,8.51-.82,12.57,1.26a51.87,51.87,0,0,0,5.81,2.13c.95-3.27,1.86-6.37,2.8-9.58,1.09,0,2-.05,2.85,0,5.25.34,10.5.76,15.75,1.07s10.73.47,16.09.79c4.36.26,8.71.71,13.07,1,3.43.22,6.88.29,10.31.43.47-2.89-1.23-7.63-3.77-9.57s-4.83-4.4-7.3-6.52a7.33,7.33,0,0,1-2.78-7.24,6.45,6.45,0,0,1,.15-1.18,2.06,2.06,0,0,0-.9-2.32c-4.79-4.2-9.54-8.43-14.37-12.59a5.34,5.34,0,0,0-2.37-1c-6.14-1.29-12.19-2.77-17.77-5.84a7.3,7.3,0,0,0-4-.52c-3.64.4-7.26,1-10.9,1.55-2.14.3-4.28.5-6.78.78-.3-2.31-.57-4.33-.85-6.43a5.16,5.16,0,0,0-1.21-.17c-5.11.68-10.21,1.47-15.33,2.07-4.73.56-9.47,1.15-14.22,1.34-9.15.36-18.3.44-27.45.66a16.77,16.77,0,0,0-2.46.51,40.74,40.74,0,0,0,3.36,2.8c3,2,6,3.88,9.06,5.75a3.81,3.81,0,0,1,1.93,2.81c.94,5.28,1.85,10.57,3.05,15.8a24.74,24.74,0,0,1,.11,9.43C382.38,310.54,382.2,312.92,381.91,315.61ZM199.19,437.28c0-2.3-.1-4.09,0-5.86.21-3.06.08-6.26,1-9.13,1.77-5.79,4.14-11.4,6.25-17.08q9.44-25.45,18.89-50.89a11.44,11.44,0,0,0,.37-6.54c-.55.1-1,.16-1.5.28-10.48,2.67-21,5.31-31.44,8.09-2,.53-3.31.34-4.73-1.22-2.94-3.24-6.08-6.31-9.16-9.42A24.13,24.13,0,0,0,177,344a7.56,7.56,0,0,0-.59,1.31c-.63,3.32-1.25,6.64-1.84,10-.5,2.84-.5,2.87-3.34,3l-5.62.22c-.21,6.81-.41,13.25-.61,19.6-2.48,1.77-2.66,2-3.8,4.91q-3.18,8.21-6.32,16.42a21,21,0,0,0-.55,2.17c4.95,0,9.64.28,14.27-.08,5.36-.41,10,.51,13.65,4.75.12.15.33.22.48.35,1.77,1.46,1.8,1.75.51,3.68-2.9,4.29-5.79,8.57-8.66,12.88-.48.72-.88,1.5-1.47,2.54Zm75.12-187.93c-.62,7.42-1.24,14.79-1.87,22.32l20.09,5.53c.43-2.3.7-4.2-.93-5.7.34-.72.57-1.27.86-1.79,2.14-3.84,4-7.74,4.19-12.29a4.4,4.4,0,0,1,1.47-2.42,25.46,25.46,0,0,1,2.85-2.17,6.16,6.16,0,0,1,4.09-1.48,4,4,0,0,0,2.58-1.11c2.38-2.25,4.64-4.64,6.92-7a3.37,3.37,0,0,0,1-1.45c.69-3.12,2.92-4.82,5.48-6.3,1.3-.74,2.51-1.62,3.75-2.45a5.11,5.11,0,0,0,.31-8.59c-9-7.07-18-14.1-26.92-21.27-6.07-4.87-12.3-9.39-19.55-12.43-4.4-1.84-8.64-4.07-12.95-6.12-.52-.25-1.07-.46-1.59-.67-1.33,2.28-2.4,4.46-1.13,7a2.18,2.18,0,0,1,0,.89c.13,8.46.29,16.91.36,25.37a24.75,24.75,0,0,1-.7,4.08c1.66,1.2.86,3.33.84,5.25,0,1.49.4,2.59,1.76,3.1s3,.84,4.79,1.35v17.43Zm59.83-13.74a4.79,4.79,0,0,0-1.11-.34c-2.28,0-4.57-.1-6.86-.07-3.37,0-7.54,3-8.83,6.06a9.47,9.47,0,0,1-1.59,2.81c-2.36,2.56-4.82,5-7.31,7.47a3.15,3.15,0,0,1-2,1.06c-2.82-.33-4.67,1.31-6.67,2.8a4.08,4.08,0,0,0-1.77,2.89c-.43,2.82-.62,5.7-2.27,8.25-1.33,2-2.41,4.18-1.74,6.92.54,2.18.12,4.59.68,6.76,1.63,6.35,3.52,12.63,5.34,18.93.24.83.6,1.63,1,2.64l16.7-5.15c1.62,2.32,2.51,2.58,4.58,1.56.62-.31,1.2-.71,1.83-1,2.94-1.39,5.63-3.45,9-3.75,3.76-.32,7.53-.5,11.29-.83a5.36,5.36,0,0,1,3.86,1.19c1.33,1,2.76,1.83,4.44,2.93,4.53-7.67,8.9-15.08,13.33-22.57-1.37-1.43-2.47-2.71-3.71-3.84-6.4-5.81-12.87-11.56-19.27-17.36a20.63,20.63,0,0,0-8.61-5.09,29.82,29.82,0,0,1-3.8-1.59ZM242.58,346v-7.77l-8.8.44c.24-1.43.51-2.39.56-3.36q.41-7.89.71-15.78c.12-3.37,0-6.76.27-10.13.17-2.26.45-4.36-2.15-5.34v-8.66c-3.66-.69-11.51-.33-15.55.66-.1,1.57-.21,3.2-.32,4.89l-19.13,1.35a4.07,4.07,0,0,0-.24.88c.29,3.76.6,7.52.9,11.28.09,1.12.17,2.2-1.18,2.73-3.24,1.28-6.52,2.58-10.09,1.85-4.86-1-9.68-2.18-14.51-3.28l-8.73-2c0,1.21,0,2,0,2.79.17,5.07.29,10.14.55,15.2.09,1.75,0,3.27-1.76,3.94,0,1.61,1.14,1.69,2.07,2,3,.94,6,1.95,9.12,2.78a8.14,8.14,0,0,1,4,2.41c3.27,3.48,6.65,6.86,9.84,10.41a4.39,4.39,0,0,0,5,1.35c7-1.89,14.07-3.5,21-5.51,8.17-2.36,16.39-3.93,24.94-3.16C240.2,346,241.28,346,242.58,346ZM204.32,166.62a10.51,10.51,0,0,0,.29,2.74c7.69,19.13,14,38.9,25.92,56.18,5.52-2.43,11.07-4.87,17.11-5.86a16.42,16.42,0,0,1,3-.31c2.68.07,5.35.31,8,.36,3.06.06,3.18-.09,3.18-3.18q0-11.49-.07-23a7.65,7.65,0,0,0-.38-2.61c-.74-2-1-4,.24-5.95.73-1.14.38-2.08-.89-2.63l-1.91-.84c-9.11-4-18.27-7.86-27.29-12a34.21,34.21,0,0,0-14.41-3.14c-3.29,0-6.57,0-9.86,0C206.36,166.42,205.49,166.53,204.32,166.62Zm89.29,246c-2.4-21.5-4.79-42.87-7.21-64.55-5.94-.62-11.56-.38-17.25-.38l-20.86,53.89c.91.37,1.44.64,2,.8,11.09,3.12,22.2,6.2,33.29,9.35C286.67,412.59,289.73,413.37,293.61,412.6Zm1.91,1.89c.66,10,8,61.8,9,63.84a12,12,0,0,0,7.57-.06c4.3-1.2,8.65-2.23,13-3.36.82-.22,1.61-.58,2.51-.91-1.22-5.09-2.38-10-3.59-15l5.9-.32c-.59-17.73-1.16-35.25-1.75-52.9-3.49-.29-6.51-.66-9.43,1.38s-6,3.47-9,5.24a11,11,0,0,1-5.65,1.58C301.2,414,298.36,414.29,295.52,414.49Zm-81.06-27c5.54,2.36,10.81,4.67,16.13,6.85s10.57,4.83,16.33,6.73c7-17.93,13.85-35.54,20.71-53.47-7.19,0-13.87-1.06-20.54-.36-.18,1.45-.32,2.6-.48,3.94-4.81-.05-9.43.23-14-.79l-.55-2.62h-4.57c-.14,2,.11,3.88-.44,5.48-1.95,5.74-4.18,11.38-6.29,17.06S216.68,381.49,214.46,387.49ZM228,449.25l18.43-46.64-32.25-13.74c-.53,1.16-1,2-1.33,2.95-2.57,6.89-5,13.84-7.73,20.67-2.81,7.07-5.22,14.16-4.37,21.94a2.41,2.41,0,0,1,0,.6c-.3,1.77.53,2.73,2.15,3.38,3.13,1.27,6.2,2.68,9.3,4C217.35,444.68,222.54,446.91,228,449.25Zm3.26-222.45a61.13,61.13,0,0,1,1.67,6.8c.59,5,1,10.09,1.35,15.14a5.08,5.08,0,0,0,1.46,3.44c2.49,2.57,4.92,5.21,7.31,7.87a7.34,7.34,0,0,1,1.72,2.71c.36,1.32,1.15,1.62,2.29,1.93,6.9,1.88,13.78,3.84,20.68,5.75.92.26,1.89.38,3.37.68.3-7,1.48-13.72,1.54-20.63l-4.27-.65V232.07a3.33,3.33,0,0,0-.61-.21c-1.82.08-3.14-1-4.56-1.91-2.09-1.36-1-3.16-.91-4.85a2.85,2.85,0,0,0,0-.29c.17-2.38-1-3.79-3.45-3.81-5.26-.05-10.52-.48-15.69,1.1A113.1,113.1,0,0,0,231.23,226.8ZM176,287.05c-4.38-1.18-7.81-4.42-12.35-4.54-4.35-.1-8.64.43-13,.73-.21,4.82-.4,9.27-.59,13.75L153,298.4c0,2.93,0,5.81,0,8.68,0,2.42,0,2.46,2.3,3,10.42,2.51,20.84,5.06,31.29,7.46,3.72.85,7.28,0,10.84-2-.21-2.64-.51-5.29-.63-7.95-.29-6.26-.48-12.52-.77-18.78a32.65,32.65,0,0,0-.57-3.78l-18.32-1.88Zm69.54,60.23c-1.75.11-3.12.24-4.48.27-2,0-3.95,0-5.92,0-.94,0-1.54.35-1.19,1.6a44.78,44.78,0,0,0,11.59.72Z" transform="translate(-27.09 -83.54)"/><path class="cls-2" d="M308,601l.93.06c.33,3.32.06,6.52-2.38,9.23.55.15.76.29.93.25a17.49,17.49,0,0,1,11.07,1,15.5,15.5,0,0,0,10.82.06c1-.34,2.19-1,3.1-.72,2.43.63,4.53-.1,6.65-1,2.59-1.06,5.15-2,8.07-1.72a6.68,6.68,0,0,0,3.09-.88c3.28-1.46,3.45-1.43,5.44,1.68.1.15.34.2.51.29,2.35-.18,2.75-.29,4.14-1.86,1-1.19,2-2.5,2.91-3.77,2.49-3.31,3.75-3.73,7.65-2.54,2.48.76,2.79.65,3.73-1.82.81-2.13,1.52-4.31,2.24-6.49a7.55,7.55,0,0,1,6.32-5.58c2.25-.35,4.52-.5,6.36-.69a55.54,55.54,0,0,1,4.35-6.63c1.81-2.06,4.18-2.25,6.51-.85,3.36,2,6.49,1.29,9.55-.52a29.78,29.78,0,0,0,3.57-2.69,8,8,0,0,1,5.22-1.79c3.8-.08,7.27,1.15,10.69,2.46,2.45.94,4.14.49,5.7-1.52a23.21,23.21,0,0,1,3.46-3.68c2.32-1.89,4-1.78,6.57-.38a32.85,32.85,0,0,0,6.27,2.65c3.26.94,5.1-.57,5.19-4a9.47,9.47,0,0,0-.39-2.33c-.52-2.27,0-3.23,2.16-3.67s3,.31,3.51,2.54c.27,1.23.58,2.46.84,3.55,5.06.92,5.4.77,7.61-3.25a2,2,0,0,1,.3-.51,5.16,5.16,0,0,0,.92-6.07,3.84,3.84,0,0,1,.55-4.21c1.19-1.37,2.54-.38,3.82.13a4.56,4.56,0,0,0,5.93-1.89,10.79,10.79,0,0,0,1.21-7.19c-.79-3.83-.88-3.81,2.8-5.44a2.14,2.14,0,0,0,.48-.41v-4.34c-2.73,0-5.21-.11-7.68,0-10,.54-20,1.19-30.07,1.67a4.42,4.42,0,0,0-3.75,1.94c-1.18,1.67-2.46,3.27-3.74,5-3-1.4-5.52-2.81-8.21-3.79a5,5,0,0,1-3.69-5.07,16.9,16.9,0,0,0-5.1-11.66c-.14-.14-.25-.31-.4-.44a4,4,0,0,1-1.23-3.22c.1-4.68.11-9.36.19-14a11.66,11.66,0,0,1,.35-2l2.91-.29c.8-6.17,1.57-12.22,2.41-18.71l11,4V472l.93-.05a198.36,198.36,0,0,1,.48,20l-11-4.05c-1.36,6.16-1.41,12.24-2.62,18.31l-2.59.16a2.72,2.72,0,0,0-.27.77c-.18,4.48-.37,8.95-.44,13.43a4.89,4.89,0,0,0,.75,2.47,16.59,16.59,0,0,0,2.2,2.82,11.75,11.75,0,0,1,3.54,8.26c0,3.58,1.55,5.89,5.08,7a44.12,44.12,0,0,1,5.31,2.46c1.31-1.7,2.56-3.22,3.7-4.83a3.52,3.52,0,0,1,3-1.57c11.13-.56,22.26-1.18,33.39-1.8,2.36-.13,4.71-.34,7.26-.54.12,1.46.22,2.61.31,3.76,3.83-.33,5.87-2.27,6.35-6,.29-2.26.4-4.57.9-6.8a19.33,19.33,0,0,1,2-5.54c1.7-2.85,4.26-3.32,7.07-1.52a2,2,0,0,0,2.43.1c.5-.33,1-.64,1.53-.94,2.35-1.33,2.51-1.28,4.11.84.29.39.64.73,1,1.12,2.64-.46,3-3.31,5-4.73.13.72.24,1.17.3,1.64a2.2,2.2,0,0,0,2.33,2.21,2.68,2.68,0,0,0,2.69-2.64c.11-1.32.12-2.61,1.84-3.45l2.55,2.32a9.16,9.16,0,0,0,1-1.53,11,11,0,0,1,2.9-4.74c1.87-1.67,1-3.8-.1-5.5,1.89-2.16,3.67-4.21,5.65-6.46.5.71.8,1.06,1,1.46,1.33,2.22,2.4,2.68,4.91,2.3,1.65-.25,3.33-.34,5-.51.76-.07,1.52-.17,2.59-.29-1.38-3.13.49-5.27,1.83-7.53.82-1.38,2.16-1.53,3.08-.25a6.25,6.25,0,0,1,1.15,3,10.25,10.25,0,0,0,2.24,5.11c1.47,2.08,3.42,2.16,5.27.39,1.55-1.48,2.09-1.55,3.24.14a5.36,5.36,0,0,0,3.58,2.39,10.6,10.6,0,0,1,3.63,1.31,5.52,5.52,0,0,0,5.64.26c1.95-.82,3.94-1.39,6.06-.41a4.59,4.59,0,0,1,2.59,4.88c-.3,1.51-1.28,2-2.57,1.23-3.73-2.36-7.57-1.7-11.48-.68-2.29.61-4.62,1-6.94,1.54-.77.16-1.57.23-2.33.46-2.52.8-5,1.24-7.54,0a3,3,0,0,0-2,0c-1.77.57-3.39,1.51-5.44,1.17-.66-.11-1.52,1.1-2.3,1.69a37.49,37.49,0,0,1-4.74,3.49c-2,1.06-4,.56-6-.57a9.71,9.71,0,0,0-2.69-1.22,2.12,2.12,0,0,0-1.79.62,1.88,1.88,0,0,0,.21,1.83c2.17,1.63,2.44,4.21,3.38,6.43,1.4,3.29-.36,6.35-3.91,6.69-2.36.22-4.77-.11-7.15,0a7.67,7.67,0,0,0-3.59,1c-3.23,2.07-5.09,2-7.84-.87-.2-.21-.42-.4-.74-.7-.71,1.68-1.28,3.32-2.07,4.85-1.29,2.47-2.75,3-5.43,2.17a1.31,1.31,0,0,1-.28-.09c-3.66-2.25-6.24-.66-8.84,2.1a58,58,0,0,1-6.67,5.47,44.34,44.34,0,0,1-4.29,3.21c-2.36,1.45-2.86,3.95-3.75,6.22a3.18,3.18,0,0,0,.14,1.68c.54,2.48-.35,3.79-2.88,4.06a21.3,21.3,0,0,1-3,.05,3.55,3.55,0,0,0-3.38,2c-1,1.82-1.92,3.69-2.89,5.52a6.09,6.09,0,0,1-8.47,2.43,4.88,4.88,0,0,1-1.53-2.38,23.53,23.53,0,0,1-.74-3.31h-2.71c-.07.41-.24.73-.15,1a7.48,7.48,0,0,1,.09,6.08,3.94,3.94,0,0,0,.12,2.24,27.3,27.3,0,0,0,1.14,2.9c-2.33.09-4.28.31-6.22.22-4.87-.23-9,2.11-13.48,3.48a2.4,2.4,0,0,0-1.15,1.78,26.84,26.84,0,0,0,0,5.07,4.54,4.54,0,0,0,1.09,2.31,38,38,0,0,0,3.14,3c-1.95.45-3.44.81-4.95,1.13a27.29,27.29,0,0,1-3.22.62c-4.1.41-7.73,1.68-10.24,5.2a7.71,7.71,0,0,1-1.34,1.06c-.18-2-.33-3.7-.5-5.5L408.34,598c.11-1.38.2-2.58.33-4.19a51,51,0,0,0-8.31,4c-.47.27-.67,1.39-.66,2.1.07,2.69.3,5.37.43,8,.05,1.09,0,2.18,0,3.65l-11.84,5.13c-.34-2.94-.65-5.54-1-8.36-2.45.37-4.32,1.55-6.5,2.82l3.84,5.37c-3.54,1.14-6.72,2.22-9.94,3.14-.59.17-1.36-.35-2.15-.58a1.06,1.06,0,0,0-.39.22c-3.47,3.93-8,5.72-13,6.59-1.27.22-2.52.6-3.77.92-3.42.87-6.52,2.08-8.64,5.27-1.43,2.16-3.49,3.85-6.42,3.79a1.54,1.54,0,0,0-.83.29c-3.77,2.63-8,2.11-12.12,1.57a6.9,6.9,0,0,0-5.35,1,14,14,0,0,1-4.92,2,7.29,7.29,0,0,1-3.78-.32c-3.2-1.13-3.93-3.88-1.88-6.59.84-1.11,1.82-2.12,2.66-3.23a22.35,22.35,0,0,0,1.36-2.45c-1.71-.1-2.94-.2-4.18-.26a10.86,10.86,0,0,1-9.83-6.2c-1.63-3.19-1.11-5.73,1.17-8.52a62.84,62.84,0,0,0,4.25-6.11,6.22,6.22,0,0,0,.57-2.27C307.67,603.55,307.81,602.27,308,601Zm45,6.71c-1.22.51-2.37,1.06-3.57,1.48a5,5,0,0,1-2.53.53c-2.11-.53-3.95.17-5.77.92-2.79,1.16-5.54,2.16-8.66,1.77a7,7,0,0,0-2.87.6,16.94,16.94,0,0,1-12.5-.48,15.84,15.84,0,0,0-9.4-.56,6.89,6.89,0,0,0-5.74,5.1c-.63,2.72.62,5.12,2.71,6.88a10.92,10.92,0,0,0,3.86,2.13,24.36,24.36,0,0,0,5,.64c1.14.08,2.22.2,2.84,1.29s-.16,2.1-.79,3c-.94,1.28-2.1,2.4-3,3.71-1.66,2.41-.61,4.49,2.32,4.75a9.11,9.11,0,0,0,6.73-1.92,5.43,5.43,0,0,1,4.15-1.19c1.18.11,2.4.06,3.56.27,3.35.62,6.53.41,9.45-1.56a2,2,0,0,1,1.08-.43c3.11.12,4.9-1.85,6.5-4.08a10.31,10.31,0,0,1,6-4.16c3.85-1,7.71-2,11.49-3.16a20.84,20.84,0,0,0,4.65-2.48c.83-.52,1.42-1.4,2.23-2,1.22-.85,2.39-2.45,4.1-.7a.64.64,0,0,0,.55.05c2.3-.72,4.6-1.47,7.1-2.28l-3.92-5.34,9.91-4.43c.33,3.17.62,5.85.92,8.78l9.4-4.09c-.22-4.6-.43-9-.65-13.56l6.1-2.84,6.4-3c-.25,1.93-.42,3.26-.63,4.9,4.6-.25,8.85-1.83,13.33-1.71.16,1.26.27,2.21.4,3.28.42-.17.77-.19.92-.38,1.6-2,3.75-2.73,6.21-3.09,2.71-.39,5.37-1.12,8.18-1.73-2.73-3.43-2.73-3.43-2.73-8.2a12.51,12.51,0,0,0,0-1.5,2.4,2.4,0,0,1,2.1-3c1.54-.35,3-1,4.52-1.5,3-1,6-2.16,9.26-2a21.71,21.71,0,0,0,4.17-.62c-.27-.25-.33-.35-.41-.36a4.5,4.5,0,0,0-1.15-.12c-3.77.39-7-1.13-10.16-2.89-2.78-1.56-3.5-1.61-5.74.53-1.59,1.51-3.09,3.11-4.6,4.7a2.94,2.94,0,0,1-3.47.77q-4.67-1.57-9.44-2.77a7.66,7.66,0,0,0-7.26,1.56,31,31,0,0,1-5.23,3.43,8.71,8.71,0,0,1-8.82-.09c-2.71-1.49-4.66-1.09-6.34,1.54a42.89,42.89,0,0,0-2.55,5.92c-1.65.11-3.8.29-5.95.4-4.16.22-5.68,1.33-7,5.19-.63,1.78-1.2,3.59-1.94,5.33-1.52,3.6-2.18,5.49-6.48,3.37a3.46,3.46,0,0,0-4.51,1.16c-.68.86-1.37,1.7-2.05,2.56s-1.39,2-2.18,2.84a6,6,0,0,1-4.84,1.84C354.3,610.7,354.25,609,353,607.7Zm180.48-98c1.91.82,3.64,1.51,5.32,2.29,2.39,1.09,4,.66,5.26-1.61a28.73,28.73,0,0,0,1.17-2.73c2.17-5.08,6.82-5.72,10.25-1.42.8,1,1.67,2,2.51,2.95a5.28,5.28,0,0,0,5.6,1.81c1.93-.43,3.87-.84,5.8-1.25a49.71,49.71,0,0,0,5.47-1.19,17.74,17.74,0,0,1,10.24-.67c1.08.29,2.12.71,3.31,1.11-.61-3.53-1.88-4.44-4.87-3.76a14.92,14.92,0,0,0-2.28.67c-2.12.9-4.12,1.23-6.19-.27a7,7,0,0,0-3.08-1.07,6.32,6.32,0,0,1-5.16-3.75c-.64.54-1.12,1-1.68,1.41a4.42,4.42,0,0,1-6.33-1.08c-1.17-1.69-2.45-3.34-2.58-5.61,0-1-.11-2.39-1.6-3.06-.9,1.95-2.72,3.31-2.14,5.72s.08,3-2.42,3.12c-1.58.08-3.25-.19-4.74.21-3.18.85-5.85.54-7.9-2.5-1,1.38-1.9,2.55-2.66,3.81a2.56,2.56,0,0,0-.37,1.9A5,5,0,0,1,533.51,509.67ZM513.8,528.14c1,1.33,1.63,2.17,2.26,3,1.65,2.11,3.68,2.54,5.66.91a6.84,6.84,0,0,1,5-1.53c1.79.08,3.58.08,5.37.06a9.71,9.71,0,0,0,2.65-.29,2.91,2.91,0,0,0,2-3c0-1.09-.3-2.28-1.35-2.4-3.28-.37-6.78-1.49-9.57,1.41a4.86,4.86,0,0,1-6.47,1c-1-.53-1.85-1.19-2.83-1.65a25.7,25.7,0,0,0-4.38-1.76c-2-.53-3,.12-3.47,2.12-.32,1.35-.35,2.76-.63,4.12-.53,2.59-2.12,3.22-4.28,1.75-.24-.17-.45-.39-.68-.58a2.17,2.17,0,0,0-3.39.24c-.81.87-1.63,1.74-2.51,2.54-2.48,2.24-4.37,5.21-7.87,6.18-.56.15-.92,1-1.39,1.46a4.37,4.37,0,0,1-1,.94c-2.73,1.4-2.74,1.39-2.16,4.19.11.52.23,1,.38,1.74,3.13-2.28,6.06-4.29,8.85-6.48,1.87-1.47,3.57-3.16,5.29-4.81a4.83,4.83,0,0,1,5.46-1.16,24,24,0,0,0,2.81,1c2,.48,2.94.11,3.81-1.82a44.56,44.56,0,0,0,1.45-4.5C512.94,530,513.26,529.4,513.8,528.14Zm-3.16-10c-.88.53-1.79,1.09-2.72,1.62a3.35,3.35,0,0,1-3.64.16c-2.94-1.7-4.7-1.19-6.19,1.77-1.72,3.42-1.44,7.17-1.81,10.87a9.68,9.68,0,0,0,2.16-1.68c2.09-2.05,3.07-2.16,5.44-.59.16.11.29.28.46.38,1.27.77,2.08.49,2.38-.94a26.42,26.42,0,0,0,.2-2.67c.44-4,2.81-5.66,6.6-4.28a45.42,45.42,0,0,1,5.53,2.88c2.54,1.34,4.05,1.2,6.2-.68a8.25,8.25,0,0,1,6.92-2c1,.15,2,.23,3.06.34l.34-.62c-.67-.92-1.26-1.9-2-2.75-1.12-1.29-1.83-2.51-.87-4.27a2.2,2.2,0,0,0-1.07-3.37c-.76,1.24-1.26,2.65-2.24,3.52-1.45,1.29-2.52-.67-4-1.18.24,2.54-.52,4.27-2.75,5.28s-3.46-.41-4.84-1.57C514.61,521.85,513.73,521.82,510.64,518.12Zm46.13-8.21c-.95-1.22-1.8-2.43-2.78-3.53-2.26-2.53-5.5-2.14-7.09.83a19.79,19.79,0,0,0-1,2.47c-1.52,4.15-5.06,5.29-8.51,3-1.12-.75-2.34-1.56-3.89-1,.44,1,.86,2,1.16,2.66,1.76.77,3.3,1.4,4.81,2.12a5.55,5.55,0,0,0,6.77-1c1-.94,2-2,2.94-3a3.15,3.15,0,0,1,2.92-1.09A6,6,0,0,0,556.77,509.91ZM473.4,560.44l5.17-.68a8.55,8.55,0,0,0,2.57-.45c.46-.22.61-1.07.89-1.64-.57-.22-1.27-.78-1.69-.61a6.52,6.52,0,0,1-5.71-.42,5.69,5.69,0,0,0-1.17-.3A3.31,3.31,0,0,0,473.4,560.44Z" transform="translate(-27.09 -83.54)"/><path class="cls-2" d="M198.91,438.53l1.29.49c-1.93,9.11-7.25,27.35-8.67,29.49l-7.08-4.09c-2,3.38-3.66,6.66-5.76,9.64-2.24,3.2-2.71,6.75-3,10.42q-.69,10.13-1.3,20.24a5.1,5.1,0,0,1-1.62,3.71,28,28,0,0,1-2.13,2.09,5.46,5.46,0,0,0-2.16,6c.15.79.16,2-.31,2.45-2.54,2.32-2.34,5.59-3.19,8.49-.33,1.13.29,1.82,1.12,2.53,1.64,1.42,3.19,3,4.83,4.5l-3.08,8.06c3.34,2.71,3.34,2.71,4.48,7.13.14.58.29,1.16.41,1.74a2,2,0,0,0,2,1.75,4.56,4.56,0,0,1,4,6.32c-1.27,3.66-2.62,7.3-4,10.94a29,29,0,0,0-1.55,8.16,38.1,38.1,0,0,0,4,.84,3.78,3.78,0,0,0,2.56-.29c2.41-2.11,4.75-1,7.53-.22a45,45,0,0,0-1.55,4.58,7.88,7.88,0,0,0-.2,3.72c.86,3.06,2.11,6,3.07,9,.38,1.19,1,2.06,2.18,2.13,2.12.14,2.48,1.51,2.78,3.2,1,5.68,2,11.35,3.15,17,1.78,8.92,1.49,5.94-1.52,13.71-.44,1.16-.84,2.33-1.31,3.65,4.2,2.33,8.14,4.44,12,6.67a11.36,11.36,0,0,0,8.64,1.12c4.53-1.13,9-2.53,13.48-3.85a16.87,16.87,0,0,0,2.13-1.06c-2.31-.28-4.25.11-5.39-1.76-.1-.18-.56-.22-.84-.2-3,.33-4.79-2.15-7.19-3.23a1.45,1.45,0,0,1-.74-.87c-.57-2.68-1.07-5.38-1.6-8.1.94-.28,1.5-.47,2.07-.61a5.66,5.66,0,0,1,1,0c.29.72.6,1.44.87,2.16.88,2.4.88,2.47,3.37,2.32,3.27-.19,6.54-.48,9.81-.78,4.92-.45,9.84-.93,14.73-1.4.51,1.26.93,2.33,1.33,3.32l3.93.24c.42,2.27.8,4.41,1.21,6.54s.62,2.37,3.39,1.85c.17-2.33.2-4.71.55-7.05a6.1,6.1,0,0,0-.63-4c-2.61-4.81-5.17-9.64-7.73-14.48-1.34-2.54-2.62-5.1-4-7.79l4.61-1.82c-.36-.77-1-1.44-.88-2,.25-1.77-.78-2.95-1.82-3.9-3.31-3-4-6.27-2.51-10.6,1.84-5.43,2.94-11.13,4.36-16.71h1.06c-1.28,5.52-2.21,11.15-3.94,16.52-1.35,4.21-.87,7.41,2.38,10.39,1.22,1.12,2.75,2.26,2.26,4.49-.14.62.83,1.48,1.47,2.51l-4.78,1.73a15.59,15.59,0,0,0,.79,2.19c3.12,6,6.22,12,9.46,18a9.23,9.23,0,0,1,1.29,5.67c-.31,2.76-.49,5.53-.75,8.52h-5.27c-.57-2.82-1.13-5.61-1.71-8.52h-3.82c-.4-1.14-.76-2.14-1.25-3.56l-26.71,2.38-2-4.43-.59.17c.45,2,.47,4.24,1.44,5.93a7.62,7.62,0,0,0,5.64,3.46c1.36.19,2.71,0,3.69,1.39.33.5,1.44.54,2.21.65,1,.15,2,.15,3.09.23a3,3,0,0,1-2.42,3.28c-4.88,1.38-9.71,3-14.66,4.08a13.09,13.09,0,0,1-9.82-1.19c-4.27-2.53-8.65-4.85-13.19-7.37,1.28-3,2.45-6,3.75-8.86a6.66,6.66,0,0,0,.5-4.3c-1.4-6.92-2.64-13.87-4-20.81-.15-.77-.38-1.53-.62-2.48-3.11.06-4.12-2.06-4.87-4.6s-1.73-5.3-2.7-7.91a4.61,4.61,0,0,1,.08-4,29.43,29.43,0,0,0,1.28-3.55,4.64,4.64,0,0,0-5.06.41,3.22,3.22,0,0,1-2.15.56c-2.16-.26-4.29-.71-6.65-1.12a37.52,37.52,0,0,1,1.77-9.41c1.21-3.48,2.51-6.92,3.78-10.38.48-1.32.93-2.6,0-4-.73-1-1.42-1.88-2.86-1.69a13,13,0,0,1-2.12-.09c-.44-1.67-1-3.34-1.32-5.06-.42-2.27-1.29-4.13-3.52-5.15a5.65,5.65,0,0,1-1.16-1c1-2.66,2-5.24,3.13-8a37.66,37.66,0,0,0-3.79-3.69,4.31,4.31,0,0,1-1.64-5.42c.41-1.22.57-2.52.91-3.77a3.72,3.72,0,0,1,.8-1.87c1.84-1.51,1.87-3.33,1.29-5.38a3.32,3.32,0,0,1,1.39-3.92c4.27-2.89,5-7.16,5.15-11.93.18-6.46.82-12.91,1.3-19.36a5.37,5.37,0,0,1,.56-2.29c2.81-4.91,5.69-9.77,8.67-14.86l7.18,4.24C194,457.23,196.42,447.87,198.91,438.53Z" transform="translate(-27.09 -83.54)"/><path class="cls-2" d="M584.47,311.79h-1.05c-.24-3.07-.49-6.14-.7-9.21-.28-3.86-.56-7.72-2.85-11.08-.56-.81-.84-1.81-1.37-2.64a7.69,7.69,0,0,1-.85-6.28,10,10,0,0,0,.23-4.41c-1.32-5.69-2.86-11.34-4.38-17.22-3-.41-5.94-.71-8.85-1.25a12.34,12.34,0,0,1-4.4-1.54c-3.6-2.31-7-4.89-10.55-7.27a3.4,3.4,0,0,1-1.65-3.21,6.51,6.51,0,0,0-.67-3.64,6,6,0,0,1-.93-3.94c.16-6,.36-12.11.49-18.17.09-4.38-1.69-6.6-5.85-7.45-1.36-.28-2.72-.56-4.1-.75-6.86-1-13.36-2.82-18.83-7.37a4.5,4.5,0,0,0-2.62-1.28c-2,.1-3.31-1.07-4.94-1.9a20.82,20.82,0,0,1,.25-2.13,9.89,9.89,0,0,0-1.92-8.15,54.19,54.19,0,0,0-4.82-6.05,4.62,4.62,0,0,1-1-4.94c.24-.75.58-1.47.87-2.21H505c-.13.58-.23,1.17-.41,1.73a5.33,5.33,0,0,0,1.08,5.26c2,2.57,3.88,5.26,5.72,8a6.65,6.65,0,0,1,.93,5.12c-.52,2.91,0,3.35,3,3.9a6.14,6.14,0,0,1,2.7,1.05,38.12,38.12,0,0,0,19.39,7.72c1.18.15,2.33.6,3.51.66a8.4,8.4,0,0,1,7.58,8.26c-.2,6.26-.33,12.53-.48,18.8a4.75,4.75,0,0,0,.93,3.61,4.65,4.65,0,0,1,.58,3.09,3.67,3.67,0,0,0,2,3.65c2.84,1.85,5.66,3.73,8.35,5.77a12.21,12.21,0,0,0,6.63,2.34c2.07.18,4.14.51,6.22.71a2.39,2.39,0,0,1,2.42,2.11c1.38,5.7,3,11.35,4.28,17.07a10.23,10.23,0,0,1-.44,4.66,5.15,5.15,0,0,0,.52,4.54c3.81,5.56,4.85,11.84,4.86,18.41C584.35,308,584.42,309.9,584.47,311.79Z" transform="translate(-27.09 -83.54)"/><path class="cls-2" d="M226.38,134.85l-.28-3.35a7.4,7.4,0,0,1,1.79-.22,5.52,5.52,0,0,0,5-2c1.46-1.52,2.75-2.88,1.41-5.16a3.72,3.72,0,0,1,3.58,0c2.85,1.54,3.14,1.4,4.36-1.73.06-.17.25-.28.63-.68l7.46,3.72c-1.17,2-.2,3.35,1.28,4.39,1.72,1.23,2,2.66,1.22,4.63-.95,2.5-1.57,5.11-2.42,8l8.74,2.3c.13,1.21.25,2.37.41,3.88h5.27a3.74,3.74,0,0,1,3.65,5.19c-.91,2.72-1.88,5.43-2.91,8.4l4.68.59c-.75,2.11-1.44,4-2.24,6.26l6.33,3,2.35-4.69,4.37.38c1-2.18,2-4.34,3-6.48,1.92-4.09,7.51-6.87,11.87-5.9a4.12,4.12,0,0,1,1.3.63,3.8,3.8,0,0,1,.6.66c2.4,2.66,4.05,5.37,2.94,9.33-.86,3.11-.87,6.47-1.29,9.95l12.88,5.46.94-1.63,1.05,0c-.25,1.11-.49,2.23-.79,3.6l-15.38-6.55c.08-1.54.08-2.84.23-4.11.37-3.16.68-6.33,1.28-9.44a3.19,3.19,0,0,0-.93-3.19c-.48-.5-.84-1.11-1.28-1.65a5.21,5.21,0,0,0-6.65-1.41c-2.74,1.57-5.51,3.11-6.39,6.58a16,16,0,0,1-1.85,4.06c-.34.59-1.23,1.41-1.67,1.31-3.29-.76-4.4,1.27-5.26,3.78a5.41,5.41,0,0,1-.81,1.07l-8.46-4.05,1.91-5.7-4.58-.69c1.15-3.26,2.3-6.32,3.3-9.43.85-2.63-.2-4-2.94-4.06-1.86,0-3.72,0-5.7,0-.13-1.44-.24-2.6-.38-4l-9.27-2.38c.85-2.94,1.51-5.74,2.5-8.41.82-2.2.56-3.87-1.42-5.15-1.4-.9-2.22-2-1.26-3.76l-5-2.52L242,126.67l-5.69-.88c.71,2.46-1.85,3.16-2.91,4.79-1.36,2.07-3.54,1.87-5.59,2.12l-.15,1.58-.53.65.08.11Z" transform="translate(-27.09 -83.54)"/><path class="cls-2" d="M93.85,501.86c.16-1,.45-1.85-.59-2.83-5.79-5.43-11.42-11-17.18-16.49a7.61,7.61,0,0,0-2.59-1v-2.35c1.48-.36,2.11.86,2.91,1.64,4.27,4.14,8.48,8.34,12.75,12.49,2,1.93,4,3.85,6.09,5.66a6,6,0,0,0,2.6,1.2c6.67,1.39,13.36,2.7,19.92,4l3-2.29c-1,3.51-1.59,3.92-4.84,3.25-6-1.23-12-2.49-18.07-3.58A15.2,15.2,0,0,0,93.85,501.86Z" transform="translate(-27.09 -83.54)"/><path class="cls-2" d="M326.9,184.6l6,.61c-.14,1.74-.26,3.34-.41,5.22h-6c1.2,1.94,2.44,2.78,4.33,2.13,1.24-.43,1.82.32,2.34,1.22l-.53.63-2.88-.4c-.58-.08-1.31.05-1.71-.25-1.67-1.28-3.24-2.69-5.42-4.53H331v-2.8l-9.38-1.31a9.37,9.37,0,0,1,.08-1.31c.82-3.09,3.33-4.78,5.55-6.71l.61.55c-1.11,1.22-2.18,2.47-3.32,3.67-.75.8-1.53,1.54-1.25,2.78l.78.33,2.22.12Z" transform="translate(-27.09 -83.54)"/><path class="cls-2" d="M72.22,422.31c.17,1.87.3,3.75.53,5.61.6,5-1.34,9.55-2.68,14.19-.8,2.75-1.66,5.49-2.5,8.23l0,1.26c-1.38-.41-1.5-1.28-1.11-2.53,1.3-4.07,2.43-8.2,3.79-12.24a20.29,20.29,0,0,0,1-7c0-2.88,0-5.76-.08-8.64Z" transform="translate(-27.09 -83.54)"/><path class="cls-2" d="M314.3,179.7l-1.05,0c.17-.6.34-1.21.52-1.81l.93-.12c.89-.24,1.78-.51,2.67-.73s2-.47,3.33-.76l1.18-2.15,3.26.28.55,0,4.21.55c0,.19,0,.39,0,.58-.68.68-1.36,1.36-2.05,2l-.6-.54c-.27-.43-.48-1.16-.83-1.23a35,35,0,0,0-3.91-.45,3.14,3.14,0,0,1-3.23,2.55C317.61,178.1,316,179.09,314.3,179.7Z" transform="translate(-27.09 -83.54)"/><path class="cls-2" d="M307.2,592.68v1H286.88v-1Z" transform="translate(-27.09 -83.54)"/><path class="cls-2" d="M72.22,422.31l-1.09-1.15q-.61-8.13-1.24-16.27c.39.21,1,.32,1.13.64a5.45,5.45,0,0,1,.44,2C71.73,412.46,72,417.39,72.22,422.31Z" transform="translate(-27.09 -83.54)"/><path class="cls-2" d="M67.56,527a3.45,3.45,0,0,1,0-1.15A2.45,2.45,0,0,0,66,522.49c-.45-.2-.88-.44-1.47-.73l3.54-4L66.36,515c1.79,0,2.68,1.33,4,2.87l-4.19,3c1.19.92,1.87,1.44,2.54,2l.63.55C69.34,524.85,69.07,526.22,67.56,527Z" transform="translate(-27.09 -83.54)"/><path class="cls-2" d="M339.66,182.24c-.52-1.12.32-1.72,1-2.22,1.53-1.12,1.89-2.6,1.93-4.41,0-2.08.42-4.14.66-6.21l.94.14c0,4.53.6,9.23-3.59,12.55Z" transform="translate(-27.09 -83.54)"/><path class="cls-2" d="M46.64,480.9c-2.7,1.34-5.43,2.65-8.09,4.07a2.21,2.21,0,0,0-.8,1.41,15,15,0,0,0-.12,2.33c-1.48-1.31-1.67-3.73-.21-4.6,2.55-1.53,5.2-2.9,7.86-4.24C46.14,479.43,46.86,479.66,46.64,480.9Z" transform="translate(-27.09 -83.54)"/><path class="cls-2" d="M339.66,182.24l.94-.15c.18,2.44.36,4.87.55,7.38l-4.86,2.42-1-.23c0-1.4,1.28-1.45,2.1-1.72,2-.66,2.59-1.86,2.31-3.84A31,31,0,0,1,339.66,182.24Z" transform="translate(-27.09 -83.54)"/><path class="cls-2" d="M30.46,520.94c.63,1.64.63,1.64,2.68,2.44l2.15-1.21c-.32,2.16-.77,2.62-2.55,2.56a1.58,1.58,0,0,0-.36-.2l-4.27-2.07Z" transform="translate(-27.09 -83.54)"/><path class="cls-2" d="M52,526.92c-.47,1.89-2.33,2.24-3.66,3a3,3,0,0,0-1.72,3.57c-.8-.59-1.61-1.19-2.91-2.17Z" transform="translate(-27.09 -83.54)"/><path class="cls-2" d="M53.17,540.71c2.43-.39,4.86-.75,7.27-1.19a6,6,0,0,0,1.54-.78l.18.15.12.94,0,.23-.69.56-.65,0-1.63.3-1.34.21-.57.06-1.57.11-.76.28C54.15,541.89,53.27,542.1,53.17,540.71Z" transform="translate(-27.09 -83.54)"/><path class="cls-2" d="M43.65,512c.51-2.26.75-2.51,2.52-2.26a32.36,32.36,0,0,1,3.78.74c.74.18,1.62.4,1.43,1.52l-2.32-.6-.59,0h0l-.59-.06A4.55,4.55,0,0,0,43.65,512Z" transform="translate(-27.09 -83.54)"/><path class="cls-2" d="M340.88,159.66c1.62-1.78,3.25-3.56,4.87-5.35l.61.55-4.92,5.32Z" transform="translate(-27.09 -83.54)"/><path class="cls-2" d="M57.4,486.89c-1,.45-2.13.87-3.16,1.36s-1.87,1-3.06,1.61l-.36-1.79c1.79-.73,3.57-1.48,5.38-2.16C57,485.59,57.83,485.55,57.4,486.89Z" transform="translate(-27.09 -83.54)"/><path class="cls-2" d="M80.06,460l2.19.51c-1.48,1.75-2.26,3.61-4.58,3.63a7.56,7.56,0,0,1,1.22-1.73A2.44,2.44,0,0,0,80.06,460Z" transform="translate(-27.09 -83.54)"/><path class="cls-2" d="M73.49,481.49a6.76,6.76,0,0,1-4.78,4.19C69.93,483.85,71.18,482.06,73.49,481.49Z" transform="translate(-27.09 -83.54)"/><path class="cls-2" d="M286.88,592.66v1c-1.23.31-1.92-.06-1.73-1.42.13-.86.35-1.71.52-2.56h1Z" transform="translate(-27.09 -83.54)"/><path class="cls-2" d="M55,516.19l2.12,1.64c-1.18,1-1.71,2.29-3.3,1.91Z" transform="translate(-27.09 -83.54)"/><path class="cls-2" d="M69.91,470.74l-1.2,3.63-2.8-1.58Z" transform="translate(-27.09 -83.54)"/><path class="cls-2" d="M159.59,443.89c.29-1.9,1-3.51,3-4.19C162.25,441.57,161.58,443.2,159.59,443.89Z" transform="translate(-27.09 -83.54)"/><path class="cls-2" d="M138.67,475c.29-1.9,1-3.52,3-4.19C141.33,472.65,140.67,474.29,138.67,475Z" transform="translate(-27.09 -83.54)"/><path class="cls-2" d="M68.75,507.84c-.34-1.83,1.4-2.26,2.3-3.92l1.25,2.13c-.73.32-1.48.62-2.2,1A15.67,15.67,0,0,0,68.75,507.84Z" transform="translate(-27.09 -83.54)"/><path class="cls-2" d="M505,179.7H504l2-5,.44.45Z" transform="translate(-27.09 -83.54)"/><path class="cls-2" d="M62,538.74q1.23-2.67,2.45-5.34l.18,1.47-1.78,4h-.67Z" transform="translate(-27.09 -83.54)"/><path class="cls-2" d="M54.36,524c1.29-.07,1.83.64.89,1.5s-2.16,1-3.27,1.45C52.77,525.93,53.57,525,54.36,524Z" transform="translate(-27.09 -83.54)"/><path class="cls-2" d="M53.77,519.74c-.77,1.21.13,2.42,0,3.63-.83-.64-1.65-1.29-2.93-2.3Z" transform="translate(-27.09 -83.54)"/><path class="cls-2" d="M344.19,169.54l-.94-.14-.57-3.7.6-.57C345.56,166.19,344.36,168,344.19,169.54Z" transform="translate(-27.09 -83.54)"/><path class="cls-2" d="M87.23,504.24l3.64-.59c.17,1.36-1.1,1.28-1.78,1.79l-1.43.06Z" transform="translate(-27.09 -83.54)"/><path class="cls-2" d="M73.49,467.75a2.71,2.71,0,0,1-3,2.39A3.12,3.12,0,0,1,73.49,467.75Z" transform="translate(-27.09 -83.54)"/><path class="cls-2" d="M65.77,532.63c-.79-1.7-.49-3.14.85-3.83.09,0,.41.35.62.54Z" transform="translate(-27.09 -83.54)"/><path class="cls-2" d="M77.08,464.76a2.74,2.74,0,0,1-3,2.39A3.06,3.06,0,0,1,77.08,464.76Z" transform="translate(-27.09 -83.54)"/><path class="cls-2" d="M50.83,488.07c-1.55-.43-1.8-1.63-1.8-3C50.56,485.52,51,486.63,50.83,488.07Z" transform="translate(-27.09 -83.54)"/><path class="cls-2" d="M50.77,537.71c1.51.43,2.53,1.25,2.4,3C51.93,540.06,50.72,539.39,50.77,537.71Z" transform="translate(-27.09 -83.54)"/><path class="cls-2" d="M340.06,163.61l-1.89-1.35L340,160.4c.06.35.11.7.17,1l-.13.89C340.08,162.75,340.07,163.18,340.06,163.61Z" transform="translate(-27.09 -83.54)"/><path class="cls-2" d="M342.68,165.7l-2.29-1.84.6-.64,2.29,1.9Z" transform="translate(-27.09 -83.54)"/><path class="cls-2" d="M81.9,501.26c.25-.56.5-1.13,1-2.19l1.37,2.2Z" transform="translate(-27.09 -83.54)"/><path class="cls-2" d="M69.88,397.68c.89-.08,1.21.41,1.22,1.22s-.14,1.57-1.23,1.56C69.88,399.53,69.88,398.61,69.88,397.68Z" transform="translate(-27.09 -83.54)"/><path class="cls-2" d="M67.54,451.6l0-1.26,1.74,1.92Z" transform="translate(-27.09 -83.54)"/><path class="cls-2" d="M63.94,490.45c-.3.4-.59.8-.89,1.19l-.88-1.19Z" transform="translate(-27.09 -83.54)"/><path class="cls-2" d="M47.78,501.85l1.21.89-1.21.88Z" transform="translate(-27.09 -83.54)"/><path class="cls-2" d="M60.39,489.28c-1-.15-1.82-.59-1.8-1.81C59.78,487.48,60.61,487.86,60.39,489.28Z" transform="translate(-27.09 -83.54)"/><path class="cls-2" d="M121.94,500.06c-.17-1,0-1.75,1.2-1.79C123.34,499.26,123.16,500,121.94,500.06Z" transform="translate(-27.09 -83.54)"/><path class="cls-2" d="M147.64,461.82c-.15-1,0-1.73,1.2-1.8C149.09,461.05,148.9,461.79,147.64,461.82Z" transform="translate(-27.09 -83.54)"/><path class="cls-2" d="M146.45,463.61c-.16-1,0-1.74,1.2-1.8C147.89,462.84,147.7,463.58,146.45,463.61Z" transform="translate(-27.09 -83.54)"/><path class="cls-2" d="M145.25,465.4c-.17-1,0-1.74,1.2-1.79C146.67,464.61,146.48,465.36,145.25,465.4Z" transform="translate(-27.09 -83.54)"/><path class="cls-2" d="M131.51,485.72c-.14-1,0-1.71,1.2-1.8C133,485,132.8,485.72,131.51,485.72Z" transform="translate(-27.09 -83.54)"/><path class="cls-2" d="M144.06,467.19c-.17-1,0-1.74,1.19-1.79C145.46,466.4,145.28,467.14,144.06,467.19Z" transform="translate(-27.09 -83.54)"/><path class="cls-2" d="M286.7,589.7h-1c0-.6.08-1.19.13-1.79h1C286.8,588.49,286.75,589.09,286.7,589.7Z" transform="translate(-27.09 -83.54)"/><path class="cls-2" d="M46.59,500.06c1.14.1,1.4.8,1.2,1.8C46.63,501.77,46.24,501.16,46.59,500.06Z" transform="translate(-27.09 -83.54)"/><path class="cls-2" d="M142.86,469c-.18-1,0-1.75,1.2-1.8C144.25,468.18,144.07,468.93,142.86,469Z" transform="translate(-27.09 -83.54)"/><path class="cls-2" d="M508.31,174.07l-1,.81-.77.13-.07.14-.44-.45,1.74-1.27Z" transform="translate(-27.09 -83.54)"/><path class="cls-2" d="M126.72,492.89c-.15-1,0-1.72,1.2-1.79C128.18,492.13,128,492.87,126.72,492.89Z" transform="translate(-27.09 -83.54)"/><path class="cls-2" d="M72.3,506.05c1.18-.37,1.84.33,2.42,1.19C73.33,508,72.79,507.08,72.3,506.05Z" transform="translate(-27.09 -83.54)"/><path class="cls-2" d="M40.61,492.29c1.14.11,1.4.8,1.2,1.8C40.64,494,40.26,493.39,40.61,492.29Z" transform="translate(-27.09 -83.54)"/><path class="cls-2" d="M137.48,476.76c-.09-.93.07-1.69,1.2-1.8C139,476,138.82,476.79,137.48,476.76Z" transform="translate(-27.09 -83.54)"/><path class="cls-2" d="M125.53,494.69c-.16-1,0-1.74,1.2-1.8C127,493.92,126.78,494.65,125.53,494.69Z" transform="translate(-27.09 -83.54)"/><path class="cls-2" d="M129.12,489.31c-.15-1,0-1.72,1.19-1.8C130.59,488.56,130.39,489.3,129.12,489.31Z" transform="translate(-27.09 -83.54)"/><path class="cls-2" d="M36.48,521c-.23-1,.05-1.69,1.2-1.79C38,520.27,37.6,520.86,36.48,521Z" transform="translate(-27.09 -83.54)"/><path class="cls-2" d="M136.29,478.55c-.11-.93.06-1.69,1.2-1.8C137.79,477.82,137.62,478.57,136.29,478.55Z" transform="translate(-27.09 -83.54)"/><path class="cls-2" d="M124.33,496.48c-.16-1,0-1.74,1.2-1.8C125.75,495.69,125.57,496.44,124.33,496.48Z" transform="translate(-27.09 -83.54)"/><path class="cls-2" d="M127.92,491.1c-.15-1,0-1.73,1.2-1.8C129.38,490.35,129.19,491.08,127.92,491.1Z" transform="translate(-27.09 -83.54)"/><path class="cls-2" d="M123.14,498.27c-.17-1,0-1.74,1.2-1.79C124.55,497.48,124.36,498.22,123.14,498.27Z" transform="translate(-27.09 -83.54)"/><path class="cls-2" d="M158.4,445.68c-.1-.93.07-1.69,1.2-1.8C159.91,445,159.74,445.71,158.4,445.68Z" transform="translate(-27.09 -83.54)"/><path class="cls-2" d="M157.2,447.47c-.1-.94.06-1.69,1.21-1.8C158.71,446.74,158.53,447.49,157.2,447.47Z" transform="translate(-27.09 -83.54)"/><path class="cls-2" d="M156,449.27c-.11-.94.05-1.7,1.2-1.8C157.5,448.53,157.33,449.28,156,449.27Z" transform="translate(-27.09 -83.54)"/><path class="cls-2" d="M154.81,451.06c-.12-.95.05-1.7,1.2-1.8C156.3,450.32,156.12,451.06,154.81,451.06Z" transform="translate(-27.09 -83.54)"/><path class="cls-2" d="M153.62,452.85c-.13-1,0-1.71,1.2-1.8C155.1,452.1,154.92,452.85,153.62,452.85Z" transform="translate(-27.09 -83.54)"/><path class="cls-2" d="M69.31,452.26c1-.18,1.7,0,1.79,1.19C70,453.76,69.36,453.48,69.31,452.26Z" transform="translate(-27.09 -83.54)"/><path class="cls-2" d="M152.42,454.64c-.13-.95,0-1.71,1.2-1.79C153.89,453.89,153.71,454.64,152.42,454.64Z" transform="translate(-27.09 -83.54)"/><path class="cls-2" d="M135.09,480.34c-.11-.94,0-1.69,1.2-1.8C136.59,479.61,136.41,480.36,135.09,480.34Z" transform="translate(-27.09 -83.54)"/><path class="cls-2" d="M133.9,482.14c-.12-.95,0-1.71,1.2-1.8C135.38,481.4,135.2,482.14,133.9,482.14Z" transform="translate(-27.09 -83.54)"/><path class="cls-2" d="M130.31,487.52c-.14-1,0-1.72,1.2-1.8C131.78,486.76,131.59,487.5,130.31,487.52Z" transform="translate(-27.09 -83.54)"/><path class="cls-2" d="M151.23,456.44c-.14-1,0-1.72,1.2-1.8C152.69,455.68,152.5,456.42,151.23,456.44Z" transform="translate(-27.09 -83.54)"/><path class="cls-2" d="M73.49,455.24c1-.16,1.69.06,1.8,1.2C74.21,456.76,73.53,456.49,73.49,455.24Z" transform="translate(-27.09 -83.54)"/><path class="cls-2" d="M48.43,483.89c-1.24,0-1.31-.85-1.19-1.8C48.57,482.07,48.61,482.91,48.43,483.89Z" transform="translate(-27.09 -83.54)"/><path class="cls-2" d="M150,458.23c-.14-1,0-1.72,1.2-1.8C151.5,457.48,151.31,458.22,150,458.23Z" transform="translate(-27.09 -83.54)"/><path class="cls-2" d="M132.7,483.93c-.12-.95,0-1.71,1.2-1.8C134.18,483.18,134,483.93,132.7,483.93Z" transform="translate(-27.09 -83.54)"/><path class="cls-2" d="M77.67,458.23c1-.15,1.69.07,1.8,1.2C78.39,459.76,77.7,459.49,77.67,458.23Z" transform="translate(-27.09 -83.54)"/><path class="cls-2" d="M148.84,460c-.15-1,0-1.73,1.2-1.79C150.3,459.27,150.1,460,148.84,460Z" transform="translate(-27.09 -83.54)"/><path class="cls-2" d="M162.59,439.7c-.19-1-.05-1.76,1.19-1.79A1.31,1.31,0,0,1,162.59,439.7Z" transform="translate(-27.09 -83.54)"/><path class="cls-2" d="M44.2,497.07c1.2.07,1.44.77,1.2,1.8C44.47,498.63,43.92,498.13,44.2,497.07Z" transform="translate(-27.09 -83.54)"/><path class="cls-2" d="M71.89,453.9c.85.07,1.65.21,1.6,1.35l-1.77-.65Z" transform="translate(-27.09 -83.54)"/><path class="cls-2" d="M66.36,510.82c-.26-1,.06-1.69,1.2-1.79C67.91,510.12,67.29,510.58,66.36,510.82Z" transform="translate(-27.09 -83.54)"/><path class="cls-2" d="M75.88,457c1-.2,1.73,0,1.8,1.19C76.62,458.52,76.07,458.06,75.88,457Z" transform="translate(-27.09 -83.54)"/><path class="cls-2" d="M90.86,503.66l1.8-1.2C92.69,503.8,91.91,503.94,90.86,503.66Z" transform="translate(-27.09 -83.54)"/><path class="cls-2" d="M42.41,494.68c1.17.09,1.42.78,1.2,1.8C42.63,496.26,42.09,495.76,42.41,494.68Z" transform="translate(-27.09 -83.54)"/><path class="cls-2" d="M141.67,470.78c-.18-1,0-1.76,1.19-1.79A1.3,1.3,0,0,1,141.67,470.78Z" transform="translate(-27.09 -83.54)"/><path class="cls-2" d="M52,512.61c1.15.1,1.46.76,1.2,1.8C52.25,514.16,51.62,513.71,52,512.61Z" transform="translate(-27.09 -83.54)"/><path class="cls-2" d="M41.26,515c-.23-1,0-1.7,1.2-1.79C42.79,514.3,42.22,514.78,41.26,515Z" transform="translate(-27.09 -83.54)"/><path class="cls-2" d="M38.87,518c-.23-1,.05-1.7,1.2-1.79C40.41,517.29,39.83,517.77,38.87,518Z" transform="translate(-27.09 -83.54)"/><path class="cls-2" d="M120.75,501.86c-.18-1,0-1.76,1.2-1.8A1.31,1.31,0,0,1,120.75,501.86Z" transform="translate(-27.09 -83.54)"/><path class="cls-2" d="M38.22,489.3c1.2.07,1.44.78,1.2,1.8C38.48,490.86,37.94,490.36,38.22,489.3Z" transform="translate(-27.09 -83.54)"/><path class="cls-2" d="M65.83,512l-.09,1.79-.67.11h0l0-2h0Z" transform="translate(-27.09 -83.54)"/><path class="cls-2" d="M59.29,541l1.63-.3Z" transform="translate(-27.09 -83.54)"/><path class="cls-2" d="M335.27,194.57l-1.18.67v-.57Z" transform="translate(-27.09 -83.54)"/><path class="cls-2" d="M75.29,507.24l1.23-.6C76.47,507.57,76.1,507.85,75.29,507.24Z" transform="translate(-27.09 -83.54)"/><path class="cls-2" d="M220.5,137.42l-1,.45Z" transform="translate(-27.09 -83.54)"/><path class="cls-2" d="M71.89,453.9l-.17.7-.86-.65.93,0Z" transform="translate(-27.09 -83.54)"/><path class="cls-2" d="M340.06,163.61c0-.43,0-.86,0-1.28.31.29.61.59.91.89l-.6.64A.64.64,0,0,1,340.06,163.61Z" transform="translate(-27.09 -83.54)"/><path class="cls-2" d="M74.68,507.22h.65l.1.93h-.75Z" transform="translate(-27.09 -83.54)"/><path class="cls-2" d="M87.66,505.5l1.43-.06C88.64,506,88.17,506.2,87.66,505.5Z" transform="translate(-27.09 -83.54)"/><path class="cls-2" d="M335.33,191.66l1,.23c0,.29,0,.57-.07.85l-.91.11C335.32,192.45,335.32,192.06,335.33,191.66Z" transform="translate(-27.09 -83.54)"/><path class="cls-2" d="M47.24,482.1l-.6-1.2Z" transform="translate(-27.09 -83.54)"/><path class="cls-2" d="M49,485.09l-.61-1.2Z" transform="translate(-27.09 -83.54)"/><path class="cls-2" d="M61.57,489.86l-1.2-.6C61.13,488.73,61.45,489.09,61.57,489.86Z" transform="translate(-27.09 -83.54)"/><path class="cls-2" d="M92.65,502.46l1.2-.6C93.72,502.61,93.35,502.86,92.65,502.46Z" transform="translate(-27.09 -83.54)"/><path class="cls-2" d="M67.56,528.45c-.83-.5-.93-1,0-1.5Z" transform="translate(-27.09 -83.54)"/><path class="cls-2" d="M64.61,534.87l-.18-1.47.07.07.65,0h.28Z" transform="translate(-27.09 -83.54)"/><path class="cls-2" d="M58.59,487.47l-1.22-.6C58.15,486.3,58.51,486.6,58.59,487.47Z" transform="translate(-27.09 -83.54)"/><path class="cls-2" d="M250.27,566.27c.08-.3.15-.6.22-.9C250.42,565.67,250.35,566,250.27,566.27Z" transform="translate(-27.09 -83.54)"/><path class="cls-2" d="M249.69,568.65l.21-.87Z" transform="translate(-27.09 -83.54)"/><path class="cls-2" d="M226.38,134.85l.86.19-.5.67-.58-.54A.36.36,0,0,1,226.38,134.85Z" transform="translate(-27.09 -83.54)"/><path class="cls-2" d="M71.79,453.93l-.93,0,.23-.51Z" transform="translate(-27.09 -83.54)"/><path class="cls-2" d="M75.28,456.43l.6.61Z" transform="translate(-27.09 -83.54)"/><path class="cls-2" d="M79.46,459.42l.61.6Z" transform="translate(-27.09 -83.54)"/><path class="cls-2" d="M77.68,464.16l-.6.6Z" transform="translate(-27.09 -83.54)"/><path class="cls-2" d="M74.09,467.15l-.6.6Z" transform="translate(-27.09 -83.54)"/><path class="cls-2" d="M70.5,470.14l-.6.6Z" transform="translate(-27.09 -83.54)"/><path class="cls-2" d="M68.71,474.37l.6.59Z" transform="translate(-27.09 -83.54)"/><path class="cls-2" d="M69.31,475l.6.6Z" transform="translate(-27.09 -83.54)"/><path class="cls-2" d="M69.9,475.56l.6.6Z" transform="translate(-27.09 -83.54)"/><path class="cls-2" d="M70.5,476.16l.6.6Z" transform="translate(-27.09 -83.54)"/><path class="cls-2" d="M71.1,476.76l.6.6Z" transform="translate(-27.09 -83.54)"/><path class="cls-2" d="M71.7,477.35l.6.6Z" transform="translate(-27.09 -83.54)"/><path class="cls-2" d="M72.3,478l.6.6Z" transform="translate(-27.09 -83.54)"/><path class="cls-2" d="M72.89,478.55l.6.6Z" transform="translate(-27.09 -83.54)"/><path class="cls-2" d="M62.18,490.46l-.6-.6Z" transform="translate(-27.09 -83.54)"/><path class="cls-2" d="M64.53,489.86l-.6.6Z" transform="translate(-27.09 -83.54)"/><path class="cls-2" d="M40,491.7l.6.6Z" transform="translate(-27.09 -83.54)"/><path class="cls-2" d="M41.81,494.09l.61.6Z" transform="translate(-27.09 -83.54)"/><path class="cls-2" d="M43.61,496.48l.6.6Z" transform="translate(-27.09 -83.54)"/><path class="cls-2" d="M45.4,498.87l.6.6Z" transform="translate(-27.09 -83.54)"/><path class="cls-2" d="M78.31,504.85l.6-.6Z" transform="translate(-27.09 -83.54)"/><path class="cls-2" d="M46.6,504.8l-.6.6Z" transform="translate(-27.09 -83.54)"/><path class="cls-2" d="M77.72,505.45l.6-.6Z" transform="translate(-27.09 -83.54)"/><path class="cls-2" d="M65.72,488.67l-.6.6Z" transform="translate(-27.09 -83.54)"/><path class="cls-2" d="M37.63,488.71l.6.6Z" transform="translate(-27.09 -83.54)"/><path class="cls-2" d="M46,505.4l-.6.6Z" transform="translate(-27.09 -83.54)"/><path class="cls-2" d="M77.12,506l.6-.6Z" transform="translate(-27.09 -83.54)"/><path class="cls-2" d="M45.4,506l-.6.6Z" transform="translate(-27.09 -83.54)"/><path class="cls-2" d="M47.79,503.61l-.6.6Z" transform="translate(-27.09 -83.54)"/><path class="cls-2" d="M76.52,506.64l.6-.6Z" transform="translate(-27.09 -83.54)"/><path class="cls-2" d="M44.8,506.6l-.6.6Z" transform="translate(-27.09 -83.54)"/><path class="cls-2" d="M44.21,507.19l-.6.6Z" transform="translate(-27.09 -83.54)"/><path class="cls-2" d="M43.61,507.79l-.6.6Z" transform="translate(-27.09 -83.54)"/><path class="cls-2" d="M68.15,508.43l.6-.6Z" transform="translate(-27.09 -83.54)"/><path class="cls-2" d="M43,508.39l-.6.6Z" transform="translate(-27.09 -83.54)"/><path class="cls-2" d="M67.55,509l.61-.6Z" transform="translate(-27.09 -83.54)"/><path class="cls-2" d="M42.41,509l-.6.6Z" transform="translate(-27.09 -83.54)"/><path class="cls-2" d="M86,503.05l.6.61Z" transform="translate(-27.09 -83.54)"/><path class="cls-2" d="M41.82,509.59l-.6.59Z" transform="translate(-27.09 -83.54)"/><path class="cls-2" d="M85.44,502.45l.61.61Z" transform="translate(-27.09 -83.54)"/><path class="cls-2" d="M41.22,510.18l-.6.6Z" transform="translate(-27.09 -83.54)"/><path class="cls-2" d="M40.62,510.78l-.6.6Z" transform="translate(-27.09 -83.54)"/><path class="cls-2" d="M47.83,511.31l.59.06Z" transform="translate(-27.09 -83.54)"/><path class="cls-2" d="M65.76,511.42l.6-.6Z" transform="translate(-27.09 -83.54)"/><path class="cls-2" d="M40,511.38l-.6.6Z" transform="translate(-27.09 -83.54)"/><path class="cls-2" d="M48.47,511.38l.59,0Z" transform="translate(-27.09 -83.54)"/><path class="cls-2" d="M65.83,512l-.75-.1.69-.48a2.46,2.46,0,0,1,.14.38C65.92,511.86,65.86,511.93,65.83,512Z" transform="translate(-27.09 -83.54)"/><path class="cls-2" d="M39.43,512l-.6.6Z" transform="translate(-27.09 -83.54)"/><path class="cls-2" d="M43.05,512.62l.6-.6Z" transform="translate(-27.09 -83.54)"/><path class="cls-2" d="M51.38,512l.6.6Z" transform="translate(-27.09 -83.54)"/><path class="cls-2" d="M66.32,488.07l-.6.6Z" transform="translate(-27.09 -83.54)"/><path class="cls-2" d="M225.56,135.77l.6-.59.58.52-.59.6Z" transform="translate(-27.09 -83.54)"/><path class="cls-2" d="M78.91,504.25l.6-.6Z" transform="translate(-27.09 -83.54)"/><path class="cls-2" d="M38.83,512.57l-.6.6Z" transform="translate(-27.09 -83.54)"/><path class="cls-2" d="M42.45,513.22l.6-.61Z" transform="translate(-27.09 -83.54)"/><path class="cls-2" d="M225,136.37l.6-.6.58.53-.59.6Z" transform="translate(-27.09 -83.54)"/><path class="cls-2" d="M38.23,513.17l-.6.6Z" transform="translate(-27.09 -83.54)"/><path class="cls-2" d="M224.42,136.93l.55-.56c.19.18.38.36.58.53l-.58.59Z" transform="translate(-27.09 -83.54)"/><path class="cls-2" d="M37.63,513.77l-.6.6Z" transform="translate(-27.09 -83.54)"/><path class="cls-2" d="M65.07,513.9l.67-.11a1.9,1.9,0,0,1,.13.38c0,.06-.07.13-.1.2Z" transform="translate(-27.09 -83.54)"/><path class="cls-2" d="M37,514.37l-.59.6Z" transform="translate(-27.09 -83.54)"/><path class="cls-2" d="M53.17,514.41l.6.6Z" transform="translate(-27.09 -83.54)"/><path class="cls-2" d="M66.36,515l-.6-.6Z" transform="translate(-27.09 -83.54)"/><path class="cls-2" d="M36.44,515l-.6.6Z" transform="translate(-27.09 -83.54)"/><path class="cls-2" d="M40.66,515.61l.6-.61Z" transform="translate(-27.09 -83.54)"/><path class="cls-2" d="M53.77,515l.6.6Z" transform="translate(-27.09 -83.54)"/><path class="cls-2" d="M80.11,503.05l.6-.59Z" transform="translate(-27.09 -83.54)"/><path class="cls-2" d="M35.84,515.56l-.6.6Z" transform="translate(-27.09 -83.54)"/><path class="cls-2" d="M40.06,516.21l.6-.61Z" transform="translate(-27.09 -83.54)"/><path class="cls-2" d="M54.36,515.6l.61.61Z" transform="translate(-27.09 -83.54)"/><path class="cls-2" d="M35.24,516.16l-.6.6Z" transform="translate(-27.09 -83.54)"/><path class="cls-2" d="M345.75,154.31l.57-.61.56.57-.51.6Z" transform="translate(-27.09 -83.54)"/><path class="cls-2" d="M340.28,160.23l.61-.56.55.51-.59.59Z" transform="translate(-27.09 -83.54)"/><path class="cls-2" d="M34.64,516.76l-.6.6Z" transform="translate(-27.09 -83.54)"/><path class="cls-2" d="M34.05,517.36l-.6.6Z" transform="translate(-27.09 -83.54)"/><path class="cls-2" d="M33.45,518l-.6.6Z" transform="translate(-27.09 -83.54)"/><path class="cls-2" d="M38.27,518.59l.6-.6Z" transform="translate(-27.09 -83.54)"/><path class="cls-2" d="M32.85,518.55l-.6.6Z" transform="translate(-27.09 -83.54)"/><path class="cls-2" d="M37.67,519.19l.6-.6Z" transform="translate(-27.09 -83.54)"/><path class="cls-2" d="M32.25,519.15l-.6.6Z" transform="translate(-27.09 -83.54)"/><path class="cls-2" d="M86.64,503.65l.6.6Z" transform="translate(-27.09 -83.54)"/><path class="cls-2" d="M31.66,519.75l-.6.6Z" transform="translate(-27.09 -83.54)"/><path class="cls-2" d="M340.21,161.44c-.06-.34-.11-.69-.17-1a.34.34,0,0,1,.25-.17l.56.54Z" transform="translate(-27.09 -83.54)"/><path class="cls-2" d="M31.06,520.34l-.6.6Z" transform="translate(-27.09 -83.54)"/><path class="cls-2" d="M35.88,521.58l.6-.6Z" transform="translate(-27.09 -83.54)"/><path class="cls-2" d="M35.28,522.18l.6-.6Z" transform="translate(-27.09 -83.54)"/><path class="cls-2" d="M65.12,489.27l-.6.6Z" transform="translate(-27.09 -83.54)"/><path class="cls-2" d="M69.37,523.36l-.63-.55Z" transform="translate(-27.09 -83.54)"/><path class="cls-2" d="M53.77,523.37l.6.6Z" transform="translate(-27.09 -83.54)"/><path class="cls-2" d="M84.84,501.85l.61.61Z" transform="translate(-27.09 -83.54)"/><path class="cls-2" d="M32.38,524.53a1.58,1.58,0,0,1,.36.2A.27.27,0,0,1,32.38,524.53Z" transform="translate(-27.09 -83.54)"/><path class="cls-2" d="M80.7,502.46l.6-.6Z" transform="translate(-27.09 -83.54)"/><path class="cls-2" d="M79.51,503.65l.6-.6Z" transform="translate(-27.09 -83.54)"/><path class="cls-2" d="M325.69,174.48l-.55,0A.66.66,0,0,1,325.69,174.48Z" transform="translate(-27.09 -83.54)"/><path class="cls-2" d="M39.42,491.1l.6.6Z" transform="translate(-27.09 -83.54)"/><path class="cls-2" d="M46.6,533.53l.6.6Z" transform="translate(-27.09 -83.54)"/><path class="cls-2" d="M84.24,501.26l.61.6Z" transform="translate(-27.09 -83.54)"/><path class="cls-2" d="M329.94,175.61c0-.19,0-.39,0-.58Z" transform="translate(-27.09 -83.54)"/><path class="cls-2" d="M47.19,534.13l.6.6Z" transform="translate(-27.09 -83.54)"/><path class="cls-2" d="M47.79,534.73l.6.6Z" transform="translate(-27.09 -83.54)"/><path class="cls-2" d="M48.39,535.33l.6.6Z" transform="translate(-27.09 -83.54)"/><path class="cls-2" d="M49,535.92l.6.61Z" transform="translate(-27.09 -83.54)"/><path class="cls-2" d="M49.58,536.52l.61.6Z" transform="translate(-27.09 -83.54)"/><path class="cls-2" d="M67.52,486.88l-.6.59Z" transform="translate(-27.09 -83.54)"/><path class="cls-2" d="M50.18,537.12l.6.6Z" transform="translate(-27.09 -83.54)"/><path class="cls-2" d="M81.3,501.86l.6-.6Z" transform="translate(-27.09 -83.54)"/><path class="cls-2" d="M506.5,175l.77-.13Z" transform="translate(-27.09 -83.54)"/><path class="cls-2" d="M62.16,538.89h.67l-.55.93Z" transform="translate(-27.09 -83.54)"/><path class="cls-2" d="M61.57,540.62l.69-.56Z" transform="translate(-27.09 -83.54)"/><path class="cls-2" d="M57.38,541.24l.57-.06-.28.08Z" transform="translate(-27.09 -83.54)"/><path class="cls-2" d="M314.7,177.79l-.93.12Z" transform="translate(-27.09 -83.54)"/><path class="cls-2" d="M55.05,541.63l.76-.28Z" transform="translate(-27.09 -83.54)"/><path class="cls-2" d="M324.11,184.43l-.78-.33Z" transform="translate(-27.09 -83.54)"/><path class="cls-2" d="M252.22,562.11l.58,0-.29,0Z" transform="translate(-27.09 -83.54)"/><path class="cls-2" d="M326.9,184.6l-.57,0A.8.8,0,0,1,326.9,184.6Z" transform="translate(-27.09 -83.54)"/><path class="cls-2" d="M333.13,193.78l.61.6-.55.57-.6-.54Z" transform="translate(-27.09 -83.54)"/><path class="cls-2" d="M68.11,486.28l-.6.6Z" transform="translate(-27.09 -83.54)"/><path class="cls-2" d="M334.09,194.67v.57l-.3.31-.6-.6.55-.57A.63.63,0,0,1,334.09,194.67Z" transform="translate(-27.09 -83.54)"/><path class="cls-2" d="M68.71,485.68l-.6.6Z" transform="translate(-27.09 -83.54)"/><path class="cls-2" d="M47.2,504.21l-.61.6Z" transform="translate(-27.09 -83.54)"/><path class="cls-2" d="M46,499.47l.6.6Z" transform="translate(-27.09 -83.54)"/><path class="cls-2" d="M66.92,487.47l-.6.6Z" transform="translate(-27.09 -83.54)"/><path class="cls-2" d="M284.44,415.18c-1,4.44-1.91,8.89-2.93,13.32-2.17,9.45-4.39,18.89-6.6,28.33-.16.67-.41,1.32-.62,2h-1.11c1-4.44,1.91-8.89,2.93-13.32q3.27-14.17,6.6-28.34c.16-.67.42-1.32.63-2Z" transform="translate(-27.09 -83.54)"/><path class="cls-2" d="M259.38,524c.81-4.19,1.58-8.39,2.44-12.56q2.63-12.69,5.36-25.37a16.65,16.65,0,0,1,.81-2.2l.91.09c-.6,3.2-1.14,6.41-1.8,9.6-2,9.79-4.11,19.56-6.17,29.34a6.82,6.82,0,0,1-.44,1.1Z" transform="translate(-27.09 -83.54)"/><path class="cls-2" d="M323,386.58a71.06,71.06,0,0,1-1.75-7.79c-.69-6.11-2.85-11.74-5.18-17.34a58.31,58.31,0,0,1-3.41-13.83l.62-1.4a37.46,37.46,0,0,1,1.48,5.1c.83,5.45,2.88,10.48,5,15.5a33.85,33.85,0,0,1,2.41,8.85c.48,3.62,1.15,7.22,1.73,10.82Z" transform="translate(-27.09 -83.54)"/><path class="cls-2" d="M370,364.39c.6-4.12,1.15-8.24,1.8-12.35.9-5.68,1.87-11.34,2.81-17l1.25.06c-.6,4.11-1.13,8.22-1.8,12.32-1,5.86-2,11.7-3,17.54Z" transform="translate(-27.09 -83.54)"/><path class="cls-2" d="M176.37,278.32c.82-4.88,1.63-9.76,2.48-14.63q.84-4.83,1.78-9.64a7.86,7.86,0,0,1,.7-1.58l.91.14c-.87,5.05-1.73,10.11-2.62,15.16q-.74,4.23-1.59,8.43a14.77,14.77,0,0,1-.78,2.2Z" transform="translate(-27.09 -83.54)"/><path class="cls-2" d="M375.38,332.12c1.22-4,2.41-8,3.67-11.95.41-1.31,1-2.55,1.54-3.83l.77.85c-1.5,4.84-3,9.68-4.52,14.52a6.17,6.17,0,0,1-.78,1.25Z" transform="translate(-27.09 -83.54)"/><path class="cls-2" d="M65.05,511.91l0,2-1.33-.73Z" transform="translate(-27.09 -83.54)"/><path class="cls-2" d="M65.15,533.51l-.65,0L65,533Z" transform="translate(-27.09 -83.54)"/><path class="cls-2" d="M227.69,134.28c-.17.22-.35.43-.53.65C227.34,134.71,227.52,134.5,227.69,134.28Z" transform="translate(-27.09 -83.54)"/></svg>